<svg xmlns="http://www.w3.org/2000/svg" xmlns:xlink="http://www.w3.org/1999/xlink" width="1080" zoomAndPan="magnify" viewBox="0 0 810 809.999993" height="1080" preserveAspectRatio="xMidYMid meet" version="1.0"><defs><g/></defs><g fill="#313f52" fill-opacity="1"><g transform="translate(223.526979, 17.828216)"><g><path d="M 56.015625 215.242188 L 56.535156 221.984375 L 62.238281 226.132812 L 68.980469 225.097656 L 101.65625 225.097656 L 109.4375 226.132812 L 118.773438 226.132812 L 127.589844 221.984375 L 136.40625 214.722656 L 139.519531 207.460938 L 149.371094 193.457031 L 151.445312 186.714844 L 160.265625 172.710938 L 170.117188 151.445312 L 175.304688 145.222656 L 178.417969 136.925781 L 183.605469 132.777344 L 191.382812 137.445312 L 195.015625 143.667969 L 197.609375 151.445312 L 203.3125 158.707031 L 210.054688 172.195312 L 213.167969 179.972656 L 229.765625 207.460938 L 232.355469 215.242188 L 240.136719 221.984375 L 250.511719 225.097656 L 272.8125 226.132812 L 301.339844 225.097656 L 307.5625 225.613281 L 315.34375 220.945312 L 314.824219 215.242188 L 310.15625 207.460938 L 303.933594 192.421875 L 268.664062 126.550781 L 265.550781 118.773438 L 255.179688 104.25 L 253.621094 98.027344 L 248.953125 91.285156 L 244.804688 83.503906 L 241.691406 74.6875 L 233.394531 60.683594 L 230.800781 53.941406 L 226.132812 46.679688 L 223.023438 38.378906 L 218.355469 31.636719 L 210.574219 24.375 L 196.570312 20.746094 L 189.828125 21.265625 L 169.082031 20.226562 L 158.191406 23.859375 L 151.445312 32.15625 L 147.296875 39.417969 L 143.667969 46.160156 L 141.074219 53.941406 L 136.40625 61.203125 L 133.292969 68.980469 L 107.363281 115.660156 L 102.695312 126.550781 L 98.027344 134.851562 L 93.359375 141.59375 L 89.726562 149.371094 L 85.058594 155.597656 L 71.574219 186.195312 L 58.089844 207.460938 Z M 56.015625 215.242188 "/></g></g></g><g fill="#71859f" fill-opacity="1"><g transform="translate(223.526979, 273.512927)"><g><path d="M 0 68.460938 L 5.1875 85.578125 L 14.003906 95.433594 L 22.820312 99.0625 L 31.636719 104.25 L 43.046875 108.398438 L 68.980469 123.441406 L 89.207031 130.699219 L 105.804688 140.554688 L 190.863281 181.011719 L 198.644531 186.195312 L 208.5 189.828125 L 256.214844 212.648438 L 265.550781 216.277344 L 311.191406 240.136719 L 320.011719 243.25 L 348.535156 256.734375 L 357.351562 256.734375 L 362.019531 249.472656 L 363.058594 239.617188 L 360.984375 228.726562 L 362.539062 208.5 L 362.019531 188.789062 L 358.910156 175.824219 L 349.574219 167.527344 L 264.515625 126.03125 L 254.660156 122.402344 L 246.359375 116.699219 L 236.507812 112.546875 L 227.691406 106.84375 L 209.019531 98.542969 L 199.164062 94.914062 L 14.523438 4.148438 L 3.628906 4.667969 L 0 17.632812 L -1.554688 28.007812 L -1.039062 43.046875 L 0.519531 52.902344 Z M 0 68.460938 "/></g></g></g><g fill="#313f52" fill-opacity="1"><g transform="translate(223.526979, 535.426076)"><g><path d="M 62.238281 30.601562 L 56.015625 35.269531 L 56.015625 40.972656 L 63.792969 60.164062 L 71.574219 71.054688 L 77.28125 84.539062 L 109.4375 143.148438 L 112.03125 151.445312 L 117.734375 162.339844 L 123.441406 170.636719 L 127.070312 181.011719 L 131.738281 187.234375 L 146.78125 216.277344 L 152.484375 224.578125 L 158.707031 230.800781 L 168.5625 234.949219 L 198.644531 235.988281 L 209.019531 231.320312 L 217.835938 224.578125 L 222.503906 217.835938 L 224.578125 209.535156 L 229.765625 202.277344 L 231.839844 195.53125 L 237.542969 188.273438 L 243.25 172.710938 L 247.917969 165.449219 L 259.847656 143.148438 L 262.957031 136.40625 L 270.738281 126.03125 L 278 106.324219 L 287.335938 91.800781 L 289.929688 85.578125 L 299.78125 70.535156 L 302.894531 63.277344 L 305.488281 56.015625 L 312.75 41.492188 L 312.230469 34.75 L 307.042969 29.5625 L 291.484375 30.601562 L 282.667969 29.5625 L 251.027344 30.601562 L 242.210938 33.195312 L 231.839844 43.566406 L 225.097656 54.457031 L 222.503906 61.203125 L 216.277344 69.5 L 202.277344 97.507812 L 197.089844 104.769531 L 195.015625 110.992188 L 190.347656 119.808594 L 183.605469 121.882812 L 179.453125 119.808594 L 166.488281 97.507812 L 163.375 90.246094 L 158.707031 82.464844 L 154.558594 76.761719 L 150.410156 68.980469 L 147.816406 61.71875 L 143.148438 56.015625 L 135.886719 40.972656 L 127.070312 34.230469 L 116.699219 29.5625 L 110.472656 31.121094 L 102.695312 30.082031 L 93.359375 30.601562 L 70.019531 29.5625 Z M 62.238281 30.601562 "/></g></g></g></svg>