<svg xmlns="http://www.w3.org/2000/svg" xmlns:xlink="http://www.w3.org/1999/xlink" width="1080" zoomAndPan="magnify" viewBox="0 0 810 809.999993" height="1080" preserveAspectRatio="xMidYMid meet" version="1.0"><defs><clipPath id="556c312ee9"><path d="M 137 175 L 673 175 L 673 782.882812 L 137 782.882812 Z M 137 175 " clip-rule="nonzero"/></clipPath><clipPath id="2c90847cdc"><path d="M 263 26.882812 L 345 26.882812 L 345 129 L 263 129 Z M 263 26.882812 " clip-rule="nonzero"/></clipPath><clipPath id="73d0dc300d"><path d="M 360 26.882812 L 443 26.882812 L 443 131 L 360 131 Z M 360 26.882812 " clip-rule="nonzero"/></clipPath><clipPath id="e146d377d4"><path d="M 458 26.882812 L 540 26.882812 L 540 131 L 458 131 Z M 458 26.882812 " clip-rule="nonzero"/></clipPath></defs><g clip-path="url(#556c312ee9)"><path fill="#313f52" d="M 404.773438 782.859375 L 185.984375 722.144531 L 137.230469 175.457031 L 672.96875 175.449219 L 624.183594 722.054688 L 404.785156 782.851562 Z M 404.773438 782.859375 " fill-opacity="1" fill-rule="nonzero"/></g><path fill="#71859f" d="M 582.402344 687.253906 L 624.109375 220.15625 L 405.109375 220.148438 L 405.109375 736.375 L 582.402344 687.246094 Z M 582.402344 687.253906 " fill-opacity="1" fill-rule="nonzero"/><path fill="#ffffff" d="M 249.007812 422.917969 L 255.015625 489.949219 L 405.109375 489.949219 L 405.109375 422.917969 Z M 249.007812 422.917969 " fill-opacity="1" fill-rule="nonzero"/><path fill="#ffffff" d="M 236.925781 287.1875 L 243.023438 354.246094 L 405.109375 354.246094 L 405.109375 287.1875 Z M 236.925781 287.1875 " fill-opacity="1" fill-rule="nonzero"/><path fill="#ffffff" d="M 405.109375 597.042969 L 404.816406 597.125 L 330.121094 576.949219 L 325.34375 523.476562 L 258.015625 523.476562 L 267.410156 628.765625 L 404.796875 666.890625 L 405.109375 666.804688 Z M 405.109375 597.042969 " fill-opacity="1" fill-rule="nonzero"/><g clip-path="url(#2c90847cdc)"><path fill="#ffffff" d="M 263.320312 26.882812 L 344.554688 26.882812 L 344.554688 60.84375 L 297.289062 60.84375 L 297.289062 94.800781 L 344.554688 94.800781 L 344.554688 128.761719 L 263.320312 128.761719 Z M 263.320312 26.882812 " fill-opacity="1" fill-rule="nonzero"/></g><g clip-path="url(#73d0dc300d)"><path fill="#ffffff" d="M 360.796875 26.882812 L 442.03125 26.882812 L 442.03125 56.414062 L 394.777344 56.414062 L 394.777344 62.320312 L 442.03125 62.320312 L 442.03125 130.238281 L 360.796875 130.238281 L 360.796875 99.234375 L 408.070312 99.234375 L 408.070312 93.324219 L 360.796875 93.324219 Z M 360.796875 26.882812 " fill-opacity="1" fill-rule="nonzero"/></g><g clip-path="url(#e146d377d4)"><path fill="#ffffff" d="M 458.285156 26.882812 L 539.515625 26.882812 L 539.515625 56.414062 L 492.242188 56.414062 L 492.242188 62.320312 L 539.515625 62.320312 L 539.515625 130.238281 L 458.285156 130.238281 L 458.285156 99.234375 L 505.539062 99.234375 L 505.539062 93.324219 L 458.285156 93.324219 Z M 458.285156 26.882812 " fill-opacity="1" fill-rule="nonzero"/></g><path fill="#ffffff" d="M 560.792969 422.917969 L 572.886719 287.1875 L 404.878906 287.1875 L 404.878906 354.246094 L 499.382812 354.246094 L 493.292969 422.917969 L 404.878906 422.917969 L 404.878906 489.949219 L 487.476562 489.949219 L 479.683594 576.910156 L 404.878906 597.105469 L 404.878906 666.847656 L 542.375 628.765625 L 543.382812 617.425781 L 559.152344 440.910156 Z M 560.792969 422.917969 " fill-opacity="1" fill-rule="nonzero"/></svg>