<svg xmlns="http://www.w3.org/2000/svg" xmlns:xlink="http://www.w3.org/1999/xlink" width="1080" zoomAndPan="magnify" viewBox="0 0 810 809.999993" height="1080" preserveAspectRatio="xMidYMid meet" version="1.0">
<defs><clipPath id="eedd800c47"><path d="M 137 175 L 673 175 L 673 782.882812 L 137 782.882812 Z M 137 175 " clip-rule="nonzero"/></clipPath><clipPath id="42b35fbbff"><path d="M 187 26.882812 L 287 26.882812 L 287 129 L 187 129 Z M 187 26.882812 " clip-rule="nonzero"/></clipPath><clipPath id="9208532a69"><path d="M 301 26.882812 L 396 26.882812 L 396 129 L 301 129 Z M 301 26.882812 " clip-rule="nonzero"/></clipPath><clipPath id="e934b385c3"><path d="M 410 26.882812 L 526 26.882812 L 526 129 L 410 129 Z M 410 26.882812 " clip-rule="nonzero"/></clipPath><clipPath id="9ad7307bf0"><path d="M 542 26.882812 L 625 26.882812 L 625 129 L 542 129 Z M 542 26.882812 " clip-rule="nonzero"/></clipPath></defs><g clip-path="url(#eedd800c47)"><path fill="#313f52" d="M 672.980469 175.449219 L 624.171875 722.054688 L 404.773438 782.851562 L 185.984375 722.136719 L 137.230469 175.449219 L 672.96875 175.441406 L 672.988281 175.441406 Z M 672.980469 175.449219 " fill-opacity="1" fill-rule="nonzero"/></g><path fill="#71859f" d="M 405.109375 736.378906 L 582.402344 687.253906 L 624.109375 220.15625 L 405.109375 220.148438 Z M 405.109375 736.378906 " fill-opacity="1" fill-rule="nonzero"/><path fill="#ffffff" d="M 310.226562 354.246094 L 405.109375 354.246094 L 405.109375 287.1875 L 236.925781 287.1875 L 238.53125 305.179688 L 255.015625 489.949219 L 405.109375 489.949219 L 405.109375 422.917969 L 316.355469 422.917969 Z M 310.226562 354.246094 " fill-opacity="1" fill-rule="nonzero"/><path fill="#ffffff" d="M 325.34375 523.476562 L 258.015625 523.476562 L 267.410156 628.765625 L 404.796875 666.890625 L 405.109375 666.804688 L 405.109375 597.042969 L 404.816406 597.125 L 330.121094 576.949219 Z M 325.34375 523.476562 " fill-opacity="1" fill-rule="nonzero"/><g clip-path="url(#42b35fbbff)"><path fill="#ffffff" d="M 187.078125 26.882812 L 221.164062 26.882812 L 221.164062 60.546875 L 252.339844 60.546875 L 252.339844 26.882812 L 286.429688 26.882812 L 286.429688 128.824219 L 252.34375 128.824219 L 252.34375 94.6875 L 221.164062 94.6875 L 221.164062 128.824219 L 187.078125 128.824219 Z M 187.078125 26.882812 " fill-opacity="1" fill-rule="nonzero"/></g><g clip-path="url(#9208532a69)"><path fill="#ffffff" d="M 331.25 60.6875 L 301.246094 60.6875 L 301.246094 26.882812 L 395.367188 26.882812 L 395.367188 60.6875 L 365.335938 60.6875 L 365.335938 128.824219 L 331.253906 128.824219 L 331.253906 60.6875 Z M 331.25 60.6875 " fill-opacity="1" fill-rule="nonzero"/></g><g clip-path="url(#e934b385c3)"><path fill="#ffffff" d="M 410.296875 26.882812 L 445.832031 26.882812 L 467.695312 62.703125 L 489.535156 26.882812 L 525.089844 26.882812 L 525.089844 128.824219 L 491.152344 128.824219 L 491.152344 78.296875 L 467.695312 114.542969 L 467.105469 114.542969 L 443.648438 78.296875 L 443.648438 128.824219 L 410.296875 128.824219 Z M 410.296875 26.882812 " fill-opacity="1" fill-rule="nonzero"/></g><g clip-path="url(#9ad7307bf0)"><path fill="#ffffff" d="M 542.058594 26.882812 L 576.144531 26.882812 L 576.144531 95.128906 L 624.089844 95.128906 L 624.089844 128.824219 L 542.058594 128.824219 Z M 542.058594 26.882812 " fill-opacity="1" fill-rule="nonzero"/></g><path fill="#ffffff" d="M 404.878906 489.949219 L 487.476562 489.949219 L 479.683594 576.910156 L 404.878906 597.105469 L 404.878906 666.847656 L 542.375 628.765625 L 543.382812 617.425781 L 559.152344 440.910156 L 560.792969 422.917969 L 404.878906 422.917969 Z M 404.878906 489.949219 " fill-opacity="1" fill-rule="nonzero"/><path fill="#ffffff" d="M 404.878906 354.078125 L 404.878906 354.246094 L 566.882812 354.246094 L 568.226562 339.171875 L 571.292969 305.179688 L 572.886719 287.1875 L 404.878906 287.1875 Z M 404.878906 354.078125 " fill-opacity="1" fill-rule="nonzero"/></svg>