<svg xmlns="http://www.w3.org/2000/svg" xmlns:xlink="http://www.w3.org/1999/xlink" width="1080" zoomAndPan="magnify" viewBox="0 0 810 809.999993" height="1080" preserveAspectRatio="xMidYMid meet" version="1.0"><path fill="#313f52" d="M 373.15625 33.03125 C 392.214844 22.246094 416.511719 22.195312 435.089844 33.03125 L 719.609375 193.332031 C 737.402344 203.332031 749.3125 223.164062 749.144531 243.664062 L 749.144531 565.074219 C 749.265625 586.433594 736.1875 606.691406 717.417969 616.503906 L 434.425781 776.066406 C 432.015625 777.398438 429.527344 778.5625 426.964844 779.5625 C 424.398438 780.558594 421.78125 781.386719 419.105469 782.035156 C 416.433594 782.683594 413.726562 783.15625 410.988281 783.445312 C 408.25 783.734375 405.507812 783.839844 402.757812 783.765625 C 400.003906 783.6875 397.269531 783.429688 394.554688 782.992188 C 391.835938 782.550781 389.160156 781.929688 386.527344 781.132812 C 383.890625 780.335938 381.324219 779.371094 378.816406 778.230469 C 376.3125 777.089844 373.894531 775.789062 371.5625 774.328125 L 286.640625 725.28125 C 280.851562 721.832031 274.347656 719.09375 270.25 713.496094 C 273.871094 708.640625 280.304688 708.023438 285.542969 705.878906 C 297.359375 702.117188 308.175781 696.355469 319.035156 690.261719 C 321.777344 688.355469 325.132812 689.070312 327.753906 690.785156 L 400.171875 732.640625 C 405.339844 735.617188 410.582031 731.6875 415.011719 729.1875 L 692.882812 572.457031 C 696.3125 570.789062 698.21875 567.171875 697.929688 563.410156 L 697.929688 245.089844 C 698.3125 240.804688 695.859375 236.902344 691.976562 235.164062 L 409.699219 76.289062 C 408.886719 75.726562 408.007812 75.296875 407.0625 75.003906 C 406.121094 74.707031 405.152344 74.558594 404.164062 74.554688 C 403.175781 74.554688 402.207031 74.699219 401.261719 74.992188 C 400.316406 75.28125 399.4375 75.707031 398.621094 76.265625 L 116.75 235.472656 C 112.9375 237.210938 110.316406 241.066406 110.792969 245.351562 L 110.792969 563.671875 C 110.460938 567.433594 112.460938 570.980469 115.917969 572.597656 L 191.238281 615.097656 C 205.386719 622.714844 222.753906 627 238.332031 621.40625 C 240.027344 620.769531 241.664062 620.007812 243.242188 619.117188 C 244.820312 618.230469 246.320312 617.230469 247.746094 616.117188 C 249.175781 615 250.507812 613.785156 251.75 612.464844 C 252.988281 611.148438 254.125 609.742188 255.152344 608.253906 C 256.179688 606.761719 257.089844 605.203125 257.878906 603.574219 C 258.667969 601.949219 259.332031 600.269531 259.867188 598.539062 C 260.402344 596.808594 260.804688 595.050781 261.070312 593.261719 C 261.335938 591.46875 261.46875 589.671875 261.460938 587.859375 L 261.53125 271.445312 C 261.199219 266.757812 265.628906 262.875 270.179688 263.351562 L 306.386719 263.351562 C 311.152344 263.234375 314.890625 268.28125 314.25 272.996094 L 314.175781 591.40625 C 314.199219 619.691406 302.578125 650.453125 276.398438 664.332031 C 244.144531 681 204.269531 677.5 172.394531 661.476562 L 91.40625 616.714844 C 72.347656 607.191406 59.554688 586.621094 59.675781 565.289062 L 59.675781 243.875 C 59.695312 241.277344 59.886719 238.691406 60.25 236.113281 C 60.617188 233.539062 61.148438 231 61.851562 228.5 C 62.554688 225.996094 63.421875 223.550781 64.449219 221.160156 C 65.476562 218.773438 66.660156 216.464844 67.996094 214.230469 C 69.332031 212 70.8125 209.871094 72.433594 207.835938 C 74.054688 205.800781 75.800781 203.882812 77.679688 202.082031 C 79.554688 200.28125 81.542969 198.613281 83.640625 197.074219 C 85.738281 195.539062 87.929688 194.148438 90.214844 192.902344 Z M 455.195312 255.828125 C 496.335938 253.449219 540.378906 254.257812 577.398438 274.519531 C 606.054688 290.042969 621.941406 322.609375 622.464844 354.46875 C 621.65625 358.753906 617.179688 361.132812 613.082031 360.824219 C 601.171875 360.800781 589.210938 360.992188 577.253906 360.753906 C 572.179688 360.941406 569.25 356.277344 568.609375 351.800781 C 565.175781 336.5625 556.863281 321.492188 542.523438 314.136719 C 520.511719 303.113281 494.976562 303.660156 470.964844 303.898438 C 453.433594 304.851562 434.589844 306.351562 419.75 316.636719 C 408.316406 324.445312 404.886719 340.445312 408.960938 352.871094 C 412.773438 361.992188 423.324219 364.917969 431.921875 367.632812 C 481.519531 380.585938 534.042969 379.539062 582.710938 396.371094 C 602.839844 403.320312 622.539062 416.84375 629.445312 437.914062 C 638.449219 466.152344 634.519531 499.914062 614.4375 522.578125 C 598.144531 541.242188 574.421875 551.148438 550.71875 556.910156 C 519.203125 563.933594 486.519531 564.101562 454.53125 560.957031 C 424.445312 557.527344 393.144531 549.625 369.917969 529.148438 C 350.050781 511.910156 340.378906 485.054688 341.332031 459.152344 C 341.570312 454.773438 345.929688 451.722656 350.148438 452.082031 L 385.878906 452.082031 C 390.691406 451.746094 394.214844 455.890625 394.453125 460.414062 C 396.667969 474.699219 402.125 490.175781 414.796875 498.507812 C 439.238281 514.269531 469.894531 513.171875 497.859375 513.625 C 521.039062 512.601562 547.050781 512.292969 565.988281 496.960938 C 575.992188 488.222656 578.921875 473.628906 576.230469 461.058594 C 573.300781 450.4375 561.9375 445.511719 552.410156 442.011719 C 503.457031 426.535156 450.335938 432.152344 401.863281 414.628906 C 382.1875 407.679688 363.152344 394.535156 355.601562 374.324219 C 345.050781 345.753906 349.882812 310.351562 372.109375 288.445312 C 393.546875 266.660156 424.992188 258.257812 454.769531 255.257812 Z M 455.195312 255.828125 " fill-opacity="1" fill-rule="nonzero"/></svg>