<svg xmlns="http://www.w3.org/2000/svg" xmlns:xlink="http://www.w3.org/1999/xlink" width="1080" zoomAndPan="magnify" viewBox="0 0 810 809.999993" height="1080" preserveAspectRatio="xMidYMid meet" version="1.0"><defs><clipPath id="386ed62d60"><path d="M 43 58 L 759 58 L 759 795.953125 L 43 795.953125 Z M 43 58 " clip-rule="nonzero"/></clipPath></defs><g clip-path="url(#386ed62d60)"><path fill="#313f52" d="M 757.046875 500.445312 C 752.730469 487.421875 741.472656 478.347656 726.902344 476.164062 C 720.042969 475.152344 712.167969 475.574219 702.871094 477.507812 C 686.648438 480.839844 674.605469 482.128906 665.808594 482.378906 C 698.976562 426.394531 725.953125 362.5625 741.472656 302.480469 C 766.570312 205.324219 753.152344 161.0625 737.464844 141.042969 C 696.007812 88.054688 635.472656 59.585938 562.472656 58.714844 C 523.535156 58.238281 489.332031 65.929688 471.515625 71.457031 C 454.902344 68.527344 437.03125 66.890625 418.320312 66.589844 C 383.191406 66.03125 352.152344 73.683594 325.652344 89.414062 C 310.964844 84.453125 287.410156 77.457031 260.203125 72.992188 C 196.21875 62.488281 144.648438 70.671875 106.925781 97.316406 C 61.25 129.574219 40.074219 185.625 43.992188 263.90625 C 45.234375 288.757812 59.140625 364.382812 81.035156 436.082031 C 93.617188 477.308594 107.035156 511.535156 120.914062 537.835938 C 140.601562 575.140625 161.664062 597.097656 185.308594 604.996094 C 198.5625 609.394531 222.640625 612.503906 247.964844 591.414062 C 251.175781 595.277344 255.460938 599.144531 261.144531 602.726562 C 268.363281 607.292969 277.1875 611.019531 286.003906 613.203125 C 317.773438 621.15625 347.53125 619.167969 372.910156 608.050781 C 373.078125 612.558594 373.191406 616.871094 373.300781 620.597656 C 373.46875 626.648438 373.640625 632.554688 373.863281 638.101562 C 375.347656 675.546875 377.898438 704.675781 385.460938 725.066406 C 385.878906 726.183594 386.441406 727.894531 387.027344 729.6875 C 390.78125 741.226562 397.085938 760.550781 413.109375 775.675781 C 429.71875 791.332031 449.804688 796.121094 468.179688 796.121094 C 477.398438 796.121094 486.191406 794.914062 493.925781 793.261719 C 521.433594 787.382812 552.667969 778.390625 575.273438 746.210938 C 596.644531 715.792969 607.011719 670.003906 608.886719 597.796875 C 609.140625 595.753906 609.363281 593.820312 609.589844 591.945312 C 609.726562 590.710938 609.867188 589.425781 610.035156 588.136719 L 615.078125 588.585938 L 616.367188 588.667969 C 644.378906 589.957031 678.640625 584.019531 699.675781 574.246094 C 716.316406 566.515625 769.59375 538.394531 757.046875 500.445312 " fill-opacity="1" fill-rule="nonzero"/></g><path fill="#71859f" d="M 709.144531 507.8125 C 625.835938 525.007812 620.09375 496.804688 620.09375 496.804688 C 708.050781 366.289062 744.832031 200.652344 713.09375 160.125 C 626.535156 49.527344 476.667969 101.832031 474.175781 103.1875 L 473.363281 103.332031 C 456.917969 99.914062 438.488281 97.882812 417.785156 97.542969 C 380.082031 96.921875 351.507812 107.421875 329.800781 123.875 C 329.800781 123.875 62.476562 13.765625 74.910156 262.355469 C 77.554688 315.238281 150.722656 662.5 237.992188 557.609375 C 269.890625 519.269531 300.710938 486.835938 300.710938 486.835938 C 316.019531 497.003906 334.335938 502.183594 353.554688 500.335938 L 355.039062 499.046875 C 354.589844 503.808594 354.785156 508.484375 355.65625 514.003906 C 333.160156 539.097656 339.773438 543.523438 294.828125 552.765625 C 249.351562 562.148438 276.066406 578.8125 293.507812 583.183594 C 314.65625 588.476562 363.582031 595.953125 396.636719 549.683594 L 395.320312 554.976562 C 404.117188 562.035156 410.308594 600.855469 409.269531 636.058594 C 408.234375 671.265625 407.535156 695.4375 414.480469 714.3125 C 421.429688 733.191406 428.347656 775.648438 487.425781 762.988281 C 536.785156 752.429688 562.386719 725.011719 565.945312 679.277344 C 568.464844 646.785156 574.179688 651.574219 574.542969 622.53125 L 579.109375 608.753906 C 584.40625 564.695312 579.949219 550.46875 610.371094 557.078125 L 617.769531 557.75 C 640.148438 558.757812 669.449219 554.136719 686.648438 546.15625 C 723.683594 528.960938 745.644531 500.28125 709.117188 507.8125 L 709.144531 507.8125 " fill-opacity="1" fill-rule="nonzero"/><path fill="#ffffff" d="M 345.457031 286.003906 C 337.949219 284.960938 331.144531 285.925781 327.699219 288.53125 C 325.765625 289.996094 325.175781 291.695312 325.007812 292.863281 C 324.589844 295.957031 326.746094 299.378906 328.0625 301.144531 C 331.84375 306.140625 337.363281 309.574219 342.796875 310.328125 C 343.609375 310.4375 344.394531 310.492188 345.148438 310.492188 C 354.253906 310.492188 362.519531 303.414062 363.246094 298.191406 C 364.171875 291.648438 354.644531 287.289062 345.457031 286.003906 " fill-opacity="1" fill-rule="nonzero"/><path fill="#ffffff" d="M 594.152344 286.210938 C 593.425781 281.085938 584.320312 279.621094 575.636719 280.828125 C 567.007812 282.03125 558.605469 285.933594 559.304688 291.074219 C 559.867188 295.070312 567.09375 301.894531 575.636719 301.894531 C 576.363281 301.894531 577.09375 301.847656 577.820312 301.742188 C 583.507812 300.953125 587.710938 297.332031 589.699219 295.246094 C 592.722656 292.0625 594.460938 288.515625 594.152344 286.210938 " fill-opacity="1" fill-rule="nonzero"/><path fill="#ffffff" d="M 736.847656 505.878906 C 733.683594 496.273438 723.457031 493.164062 706.457031 496.691406 C 656.03125 507.082031 637.964844 499.882812 632.027344 495.515625 C 671.242188 435.804688 703.484375 363.628906 720.882812 296.273438 C 729.144531 264.371094 733.683594 234.746094 734.046875 210.601562 C 734.46875 184.09375 729.957031 164.617188 720.628906 152.71875 C 683.09375 104.757812 627.992188 79.03125 561.292969 78.324219 C 515.4375 77.808594 476.695312 89.539062 469.1875 92.839844 C 453.390625 88.90625 436.132812 86.492188 417.367188 86.183594 C 382.9375 85.628906 353.191406 93.867188 328.566406 110.660156 C 317.855469 106.679688 290.199219 97.191406 256.382812 91.742188 C 197.914062 82.328125 151.453125 89.460938 118.296875 112.945312 C 78.734375 140.972656 60.46875 191.066406 64.007812 261.832031 C 65.199219 285.644531 78.769531 358.894531 100.179688 429.027344 C 128.367188 521.367188 159.003906 573.628906 191.242188 584.382812 C 195.015625 585.644531 199.371094 586.511719 204.164062 586.511719 C 215.925781 586.511719 230.34375 581.21875 245.34375 563.179688 C 270.261719 533.214844 293.527344 508.089844 302.101562 498.960938 C 314.773438 505.765625 328.707031 509.574219 342.9375 509.9375 C 342.964844 510.332031 342.992188 510.695312 343.019531 511.058594 C 340.164062 514.449219 337.839844 517.417969 335.820312 519.964844 C 325.960938 532.484375 323.917969 535.089844 292.15625 541.617188 C 283.121094 543.492188 259.125 548.421875 258.777344 565.253906 C 258.394531 583.628906 287.140625 591.328125 290.414062 592.140625 C 301.824219 595 312.820312 596.425781 323.300781 596.425781 C 348.820312 596.425781 371.257812 588.050781 389.1875 571.835938 C 388.625 637.316406 391.371094 701.875 399.214844 721.535156 C 405.65625 737.640625 421.398438 776.960938 471.121094 776.960938 C 478.40625 776.960938 486.445312 776.121094 495.269531 774.21875 C 547.148438 763.097656 569.671875 740.1875 578.410156 689.636719 C 583.058594 662.636719 591.070312 598.105469 594.824219 563.519531 C 602.78125 565.980469 613.003906 567.128906 624.070312 567.128906 C 647.125 567.128906 673.738281 562.230469 690.402344 554.472656 C 709.171875 545.789062 742.984375 524.417969 736.847656 505.878906 Z M 613.3125 272.058594 C 613.117188 282.273438 611.71875 291.546875 610.230469 301.222656 C 608.636719 311.636719 606.984375 322.398438 606.5625 335.464844 C 606.140625 348.167969 607.738281 361.386719 609.28125 374.1875 C 612.359375 400.007812 615.554688 426.589844 603.230469 452.832031 C 601.296875 449.414062 599.449219 445.71875 597.765625 441.601562 C 596.226562 437.875 592.890625 431.910156 588.296875 423.648438 C 570.371094 391.523438 528.40625 316.25 549.894531 285.539062 C 556.28125 276.394531 572.527344 266.996094 613.3125 272.058594 Z M 563.871094 99.007812 C 623.648438 100.328125 670.90625 122.679688 704.382812 165.441406 C 730.042969 198.242188 701.777344 347.496094 619.953125 476.242188 C 619.140625 475.203125 618.328125 474.167969 617.460938 473.105469 C 617.125 472.683594 616.789062 472.234375 616.421875 471.816406 C 637.574219 436.890625 633.453125 402.355469 629.757812 371.714844 C 628.246094 359.140625 626.816406 347.265625 627.179688 336.121094 C 627.570312 324.300781 629.140625 314.164062 630.625 304.359375 C 632.503906 292.28125 634.378906 279.78125 633.875 265.046875 C 634.265625 263.5 634.40625 261.675781 634.210938 259.507812 C 632.867188 245.378906 616.730469 203.089844 583.84375 164.8125 C 565.859375 143.878906 539.640625 120.449219 503.8125 104.648438 C 519.21875 101.457031 540.285156 98.476562 563.871094 99 Z M 229.457031 549.984375 C 212.929688 569.839844 201.519531 566.03125 197.765625 564.800781 C 173.308594 556.621094 144.933594 504.949219 119.914062 423 C 98.269531 352.082031 85.617188 280.789062 84.613281 260.796875 C 81.453125 197.558594 96.785156 153.492188 130.183594 129.808594 C 184.539062 91.269531 273.90625 114.335938 309.816406 126.035156 C 309.300781 126.542969 308.761719 127.019531 308.253906 127.539062 C 249.324219 187.039062 250.722656 288.695312 250.867188 294.910156 C 250.863281 297.304688 251.066406 300.699219 251.339844 305.371094 C 252.351562 322.46875 254.242188 354.296875 249.199219 390.339844 C 244.515625 423.808594 254.839844 456.605469 277.523438 480.246094 C 279.871094 482.710938 282.320312 485.007812 284.851562 487.164062 C 274.757812 497.972656 252.816406 521.894531 229.457031 549.984375 Z M 292.429688 465.960938 C 274.148438 446.917969 265.84375 420.367188 269.644531 393.199219 C 274.96875 355.109375 273.003906 321.960938 271.949219 304.148438 C 271.800781 301.65625 271.671875 299.472656 271.59375 297.75 C 280.199219 290.117188 320.09375 268.746094 348.527344 275.265625 C 361.527344 278.234375 369.425781 287.074219 372.730469 302.277344 C 389.734375 380.988281 374.972656 413.785156 363.121094 440.167969 C 360.65625 445.574219 358.359375 450.726562 356.371094 456.019531 L 354.859375 460.136719 C 350.964844 470.527344 347.378906 480.160156 345.140625 489.320312 C 325.699219 489.265625 306.804688 480.972656 292.425781 465.960938 Z M 295.410156 572.136719 C 289.734375 570.710938 284.632812 568.246094 281.636719 566.199219 C 284.140625 565.023438 288.589844 563.429688 296.308594 561.832031 C 333.683594 554.15625 339.453125 548.722656 352.03125 532.730469 C 354.941406 529.0625 358.191406 524.890625 362.730469 519.847656 L 362.730469 519.820312 C 369.507812 512.257812 372.589844 513.546875 378.195312 515.871094 C 382.730469 517.746094 387.15625 523.433594 388.949219 529.707031 C 389.789062 532.648438 390.742188 538.277344 387.632812 542.644531 C 361.300781 579.476562 322.953125 579.027344 295.410156 572.136719 Z M 490.945312 754.046875 C 445.226562 763.820312 429.035156 740.519531 418.390625 713.855469 C 411.5 696.660156 408.109375 619.050781 410.519531 533.347656 C 410.546875 532.226562 410.378906 531.105469 410.070312 530.070312 C 409.792969 528.082031 409.371094 526.066406 408.785156 524.019531 C 405.226562 511.558594 396.542969 501.140625 386.09375 496.796875 C 381.949219 495.089844 374.328125 491.925781 365.195312 494.277344 C 367.15625 486.238281 370.519531 477.164062 374.1875 467.363281 L 375.730469 463.21875 C 377.464844 458.566406 379.621094 453.722656 381.949219 448.625 C 394.355469 421.039062 411.359375 383.253906 392.898438 297.917969 C 385.980469 265.949219 362.898438 250.335938 327.910156 253.964844 C 306.914062 256.136719 287.722656 264.597656 278.148438 269.453125 C 276.089844 270.496094 274.207031 271.503906 272.445312 272.484375 C 275.117188 240.273438 285.214844 180.082031 322.980469 142 C 346.761719 118.023438 378.417969 106.179688 417.019531 106.820312 C 493.042969 108.0625 541.785156 147.070312 569.292969 179.578125 C 593.019531 207.589844 605.851562 235.808594 610.976562 251.023438 C 572.460938 247.109375 546.242188 254.710938 532.960938 273.703125 C 504.054688 315.007812 548.761719 395.1875 570.246094 433.695312 C 574.195312 440.753906 577.585938 446.859375 578.679688 449.464844 C 585.652344 466.410156 594.730469 477.726562 601.339844 486.015625 C 603.359375 488.535156 605.347656 491 606.832031 493.128906 C 595.148438 496.488281 574.195312 504.277344 576.101562 543.121094 C 574.5625 562.617188 563.609375 653.863281 558.035156 686.128906 C 550.695312 728.726562 535.007812 744.582031 490.945312 754.046875 Z M 681.707031 535.757812 C 669.777344 541.300781 649.804688 545.445312 630.839844 546.34375 C 609.886719 547.324219 599.210938 543.992188 596.71875 541.945312 C 595.542969 517.746094 604.535156 515.199219 614.085938 512.539062 C 615.570312 512.117188 617.054688 511.699219 618.457031 511.222656 C 619.324219 511.921875 620.304688 512.621094 621.34375 513.324219 C 638.175781 524.441406 668.234375 525.644531 710.617188 516.878906 C 710.785156 516.851562 710.953125 516.824219 711.09375 516.796875 C 705.378906 522.144531 695.601562 529.316406 681.707031 535.757812 Z M 681.707031 535.757812 " fill-opacity="1" fill-rule="nonzero"/></svg>