<svg xmlns="http://www.w3.org/2000/svg" xmlns:xlink="http://www.w3.org/1999/xlink" width="2500" zoomAndPan="magnify" viewBox="0 0 810 809.999993" height="2500" preserveAspectRatio="xMidYMid meet" version="1.0">
<defs><clipPath id="7760ba0371"><path d="M 36 47.113281 L 790 47.113281 L 790 762.613281 L 36 762.613281 Z M 36 47.113281 " clip-rule="nonzero"/>
</clipPath></defs><g clip-path="url(#7760ba0371)">
<path fill="#313f52" d="M 558.410156 546.871094 C 586.238281 544.015625 607.355469 520.019531 606.382812 491.253906 C 605.410156 462.457031 581.441406 439.460938 552.667969 439.460938 L 550.726562 439.460938 C 521.011719 440.402344 497.984375 465.339844 498.925781 495.078125 C 499.898438 509.476562 505.640625 521.933594 514.296875 530.558594 C 481.667969 594.835938 431.785156 641.859375 356.957031 681.167969 C 306.109375 708.023438 253.347656 717.621094 200.582031 710.90625 C 157.414062 705.164062 123.835938 685.96875 102.730469 654.316406 C 72.03125 607.320312 69.152344 556.472656 95.058594 505.621094 C 113.28125 469.167969 142.0625 442.316406 160.289062 428.886719 C 156.453125 416.433594 150.695312 395.320312 147.820312 379.980469 C 8.714844 480.679688 23.105469 616.890625 65.316406 681.167969 C 96.972656 729.132812 161.25 758.871094 232.242188 758.871094 C 251.425781 758.871094 270.613281 756.957031 289.800781 752.160156 C 412.585938 728.191406 505.640625 655.285156 558.410156 546.871094 Z M 727.265625 427.945312 C 654.355469 342.558594 546.898438 295.558594 424.097656 295.558594 L 408.757812 295.558594 C 400.128906 278.292969 381.898438 266.78125 361.757812 266.78125 L 359.84375 266.78125 C 330.09375 267.738281 307.070312 292.679688 308.027344 322.417969 C 308.988281 351.183594 332.957031 374.210938 361.757812 374.210938 L 363.671875 374.210938 C 384.785156 373.269531 403.015625 359.839844 410.671875 341.617188 L 427.957031 341.617188 C 500.839844 341.617188 569.925781 362.699219 632.296875 403.949219 C 680.238281 435.601562 714.78125 476.855469 733.980469 526.734375 C 750.296875 567.011719 749.324219 606.351562 732.066406 639.917969 C 705.179688 690.765625 660.097656 718.59375 600.609375 718.59375 C 562.238281 718.59375 525.78125 707.078125 506.613281 698.453125 C 496.070312 708.023438 476.871094 723.390625 463.441406 732.960938 C 504.699219 752.160156 546.898438 762.699219 587.183594 762.699219 C 679.296875 762.699219 747.410156 711.878906 773.292969 661.027344 C 801.125 605.40625 799.207031 509.476562 727.265625 427.945312 Z M 239.902344 563.183594 C 240.859375 591.953125 264.84375 614.976562 293.621094 614.976562 L 295.542969 614.976562 C 325.28125 614.035156 348.3125 589.097656 347.34375 559.355469 C 346.398438 530.558594 322.402344 507.5625 293.621094 507.5625 L 291.707031 507.5625 C 289.785156 507.5625 286.910156 507.5625 284.988281 508.507812 C 245.65625 443.285156 229.347656 372.296875 235.101562 295.558594 C 238.941406 238.003906 258.128906 188.121094 291.707031 146.871094 C 319.523438 111.378906 373.257812 94.113281 409.714844 93.15625 C 511.398438 91.238281 554.570312 217.855469 557.453125 268.699219 C 569.910156 271.574219 591.023438 278.292969 605.394531 283.089844 C 593.882812 127.691406 497.96875 47.113281 405.855469 47.113281 C 319.523438 47.113281 239.902344 109.464844 208.242188 201.550781 C 164.113281 324.335938 192.890625 442.316406 246.613281 535.363281 C 241.820312 542.074219 238.941406 552.648438 239.902344 563.1875 Z M 239.902344 563.183594 " 
fill-opacity="1" fill-rule="nonzero"/></g></svg>