<svg xmlns="http://www.w3.org/2000/svg" xmlns:xlink="http://www.w3.org/1999/xlink" width="1080" zoomAndPan="magnify" viewBox="0 0 810 809.999993" height="1080" preserveAspectRatio="xMidYMid meet" version="1.0"><defs><clipPath id="71b2964e31"><path d="M 106 180.101562 L 800 180.101562 L 800 630.101562 L 106 630.101562 Z M 106 180.101562 " clip-rule="nonzero"/></clipPath><clipPath id="6b55478a7b"><path d="M 393 192 L 455 192 L 455 255 L 393 255 Z M 393 192 " clip-rule="nonzero"/></clipPath><clipPath id="85c43a4e07"><path d="M 245.121094 187.054688 L 245.121094 329.75 L 176.9375 329.75 L 176.9375 401.097656 L 119.847656 401.097656 L 119.210938 407.304688 C 115.648438 446.171875 122.421875 482.027344 138 512.679688 L 143.234375 522.078125 C 146.332031 527.714844 150.050781 533.007812 153.886719 538.171875 C 157.726562 543.339844 159.113281 546.1875 161.542969 549.613281 C 202.722656 595.898438 264.121094 618.230469 335 618.230469 C 491.972656 618.230469 625.191406 548.628906 684.164062 392.265625 C 725.972656 396.558594 766.105469 385.824219 784.390625 350.097656 C 755.257812 333.273438 717.828125 338.667969 696.257812 349.519531 L 753.410156 187.042969 L 530.261719 329.738281 L 458.980469 329.738281 L 458.980469 187.042969 Z M 245.121094 187.054688 " clip-rule="nonzero"/></clipPath><clipPath id="91cebfd08a"><path d="M 400 197 L 448 197 L 448 250 L 400 250 Z M 400 197 " clip-rule="nonzero"/></clipPath><clipPath id="1fe0aa6fbf"><path d="M 245.121094 187.054688 L 245.121094 329.75 L 176.9375 329.75 L 176.9375 401.097656 L 119.847656 401.097656 L 119.210938 407.304688 C 115.648438 446.171875 122.421875 482.027344 138 512.679688 L 143.234375 522.078125 C 146.332031 527.714844 150.050781 533.007812 153.886719 538.171875 C 157.726562 543.339844 159.113281 546.1875 161.542969 549.613281 C 202.722656 595.898438 264.121094 618.230469 335 618.230469 C 491.972656 618.230469 625.191406 548.628906 684.164062 392.265625 C 725.972656 396.558594 766.105469 385.824219 784.390625 350.097656 C 755.257812 333.273438 717.828125 338.667969 696.257812 349.519531 L 753.410156 187.042969 L 530.261719 329.738281 L 458.980469 329.738281 L 458.980469 187.042969 Z M 245.121094 187.054688 " clip-rule="nonzero"/></clipPath><clipPath id="fc6cb71a22"><path d="M 398 195 L 450 195 L 450 252 L 398 252 Z M 398 195 " clip-rule="nonzero"/></clipPath><clipPath id="bd43ef29f0"><path d="M 245.121094 187.054688 L 245.121094 329.75 L 176.9375 329.75 L 176.9375 401.097656 L 119.847656 401.097656 L 119.210938 407.304688 C 115.648438 446.171875 122.421875 482.027344 138 512.679688 L 143.234375 522.078125 C 146.332031 527.714844 150.050781 533.007812 153.886719 538.171875 C 157.726562 543.339844 159.113281 546.1875 161.542969 549.613281 C 202.722656 595.898438 264.121094 618.230469 335 618.230469 C 491.972656 618.230469 625.191406 548.628906 684.164062 392.265625 C 725.972656 396.558594 766.105469 385.824219 784.390625 350.097656 C 755.257812 333.273438 717.828125 338.667969 696.257812 349.519531 L 753.410156 187.042969 L 530.261719 329.738281 L 458.980469 329.738281 L 458.980469 187.042969 Z M 245.121094 187.054688 " clip-rule="nonzero"/></clipPath><clipPath id="b9cb1b09bc"><path d="M 464 192 L 526 192 L 526 255 L 464 255 Z M 464 192 " clip-rule="nonzero"/></clipPath><clipPath id="d13f3ce6f5"><path d="M 245.121094 187.054688 L 245.121094 329.75 L 176.9375 329.75 L 176.9375 401.097656 L 119.847656 401.097656 L 119.210938 407.304688 C 115.648438 446.171875 122.421875 482.027344 138 512.679688 L 143.234375 522.078125 C 146.332031 527.714844 150.050781 533.007812 153.886719 538.171875 C 157.726562 543.339844 159.113281 546.1875 161.542969 549.613281 C 202.722656 595.898438 264.121094 618.230469 335 618.230469 C 491.972656 618.230469 625.191406 548.628906 684.164062 392.265625 C 725.972656 396.558594 766.105469 385.824219 784.390625 350.097656 C 755.257812 333.273438 717.828125 338.667969 696.257812 349.519531 L 753.410156 187.042969 L 530.261719 329.738281 L 458.980469 329.738281 L 458.980469 187.042969 Z M 245.121094 187.054688 " clip-rule="nonzero"/></clipPath><clipPath id="29c903cec3"><path d="M 471 197 L 519 197 L 519 250 L 471 250 Z M 471 197 " clip-rule="nonzero"/></clipPath><clipPath id="2a30fed841"><path d="M 245.121094 187.054688 L 245.121094 329.75 L 176.9375 329.75 L 176.9375 401.097656 L 119.847656 401.097656 L 119.210938 407.304688 C 115.648438 446.171875 122.421875 482.027344 138 512.679688 L 143.234375 522.078125 C 146.332031 527.714844 150.050781 533.007812 153.886719 538.171875 C 157.726562 543.339844 159.113281 546.1875 161.542969 549.613281 C 202.722656 595.898438 264.121094 618.230469 335 618.230469 C 491.972656 618.230469 625.191406 548.628906 684.164062 392.265625 C 725.972656 396.558594 766.105469 385.824219 784.390625 350.097656 C 755.257812 333.273438 717.828125 338.667969 696.257812 349.519531 L 753.410156 187.042969 L 530.261719 329.738281 L 458.980469 329.738281 L 458.980469 187.042969 Z M 245.121094 187.054688 " clip-rule="nonzero"/></clipPath><clipPath id="cf4cc5aeb7"><path d="M 469 195 L 521 195 L 521 252 L 469 252 Z M 469 195 " clip-rule="nonzero"/></clipPath><clipPath id="0fba6556a4"><path d="M 245.121094 187.054688 L 245.121094 329.75 L 176.9375 329.75 L 176.9375 401.097656 L 119.847656 401.097656 L 119.210938 407.304688 C 115.648438 446.171875 122.421875 482.027344 138 512.679688 L 143.234375 522.078125 C 146.332031 527.714844 150.050781 533.007812 153.886719 538.171875 C 157.726562 543.339844 159.113281 546.1875 161.542969 549.613281 C 202.722656 595.898438 264.121094 618.230469 335 618.230469 C 491.972656 618.230469 625.191406 548.628906 684.164062 392.265625 C 725.972656 396.558594 766.105469 385.824219 784.390625 350.097656 C 755.257812 333.273438 717.828125 338.667969 696.257812 349.519531 L 753.410156 187.042969 L 530.261719 329.738281 L 458.980469 329.738281 L 458.980469 187.042969 Z M 245.121094 187.054688 " clip-rule="nonzero"/></clipPath><clipPath id="6a6212caf2"><path d="M 118.050781 263 L 172 263 L 172 326 L 118.050781 326 Z M 118.050781 263 " clip-rule="nonzero"/></clipPath><clipPath id="a9c46f6bc2"><path d="M 245.121094 187.054688 L 245.121094 329.75 L 176.9375 329.75 L 176.9375 401.097656 L 119.847656 401.097656 L 119.210938 407.304688 C 115.648438 446.171875 122.421875 482.027344 138 512.679688 L 143.234375 522.078125 C 146.332031 527.714844 150.050781 533.007812 153.886719 538.171875 C 157.726562 543.339844 159.113281 546.1875 161.542969 549.613281 C 202.722656 595.898438 264.121094 618.230469 335 618.230469 C 491.972656 618.230469 625.191406 548.628906 684.164062 392.265625 C 725.972656 396.558594 766.105469 385.824219 784.390625 350.097656 C 755.257812 333.273438 717.828125 338.667969 696.257812 349.519531 L 753.410156 187.042969 L 530.261719 329.738281 L 458.980469 329.738281 L 458.980469 187.042969 Z M 245.121094 187.054688 " clip-rule="nonzero"/></clipPath><clipPath id="90cd258a77"><path d="M 118.050781 334 L 172 334 L 172 397 L 118.050781 397 Z M 118.050781 334 " clip-rule="nonzero"/></clipPath><clipPath id="cddea0a45f"><path d="M 245.121094 187.054688 L 245.121094 329.75 L 176.9375 329.75 L 176.9375 401.097656 L 119.847656 401.097656 L 119.210938 407.304688 C 115.648438 446.171875 122.421875 482.027344 138 512.679688 L 143.234375 522.078125 C 146.332031 527.714844 150.050781 533.007812 153.886719 538.171875 C 157.726562 543.339844 159.113281 546.1875 161.542969 549.613281 C 202.722656 595.898438 264.121094 618.230469 335 618.230469 C 491.972656 618.230469 625.191406 548.628906 684.164062 392.265625 C 725.972656 396.558594 766.105469 385.824219 784.390625 350.097656 C 755.257812 333.273438 717.828125 338.667969 696.257812 349.519531 L 753.410156 187.042969 L 530.261719 329.738281 L 458.980469 329.738281 L 458.980469 187.042969 Z M 245.121094 187.054688 " clip-rule="nonzero"/></clipPath><clipPath id="4d25bf552e"><path d="M 118.050781 268 L 164 268 L 164 320 L 118.050781 320 Z M 118.050781 268 " clip-rule="nonzero"/></clipPath><clipPath id="c847a6747c"><path d="M 245.121094 187.054688 L 245.121094 329.75 L 176.9375 329.75 L 176.9375 401.097656 L 119.847656 401.097656 L 119.210938 407.304688 C 115.648438 446.171875 122.421875 482.027344 138 512.679688 L 143.234375 522.078125 C 146.332031 527.714844 150.050781 533.007812 153.886719 538.171875 C 157.726562 543.339844 159.113281 546.1875 161.542969 549.613281 C 202.722656 595.898438 264.121094 618.230469 335 618.230469 C 491.972656 618.230469 625.191406 548.628906 684.164062 392.265625 C 725.972656 396.558594 766.105469 385.824219 784.390625 350.097656 C 755.257812 333.273438 717.828125 338.667969 696.257812 349.519531 L 753.410156 187.042969 L 530.261719 329.738281 L 458.980469 329.738281 L 458.980469 187.042969 Z M 245.121094 187.054688 " clip-rule="nonzero"/></clipPath><clipPath id="7fff57a7a2"><path d="M 118.050781 266 L 167 266 L 167 323 L 118.050781 323 Z M 118.050781 266 " clip-rule="nonzero"/></clipPath><clipPath id="3b44770378"><path d="M 245.121094 187.054688 L 245.121094 329.75 L 176.9375 329.75 L 176.9375 401.097656 L 119.847656 401.097656 L 119.210938 407.304688 C 115.648438 446.171875 122.421875 482.027344 138 512.679688 L 143.234375 522.078125 C 146.332031 527.714844 150.050781 533.007812 153.886719 538.171875 C 157.726562 543.339844 159.113281 546.1875 161.542969 549.613281 C 202.722656 595.898438 264.121094 618.230469 335 618.230469 C 491.972656 618.230469 625.191406 548.628906 684.164062 392.265625 C 725.972656 396.558594 766.105469 385.824219 784.390625 350.097656 C 755.257812 333.273438 717.828125 338.667969 696.257812 349.519531 L 753.410156 187.042969 L 530.261719 329.738281 L 458.980469 329.738281 L 458.980469 187.042969 Z M 245.121094 187.054688 " clip-rule="nonzero"/></clipPath><clipPath id="8c654f4b7b"><path d="M 118.050781 339 L 164 339 L 164 391 L 118.050781 391 Z M 118.050781 339 " clip-rule="nonzero"/></clipPath><clipPath id="ec3d947f7e"><path d="M 245.121094 187.054688 L 245.121094 329.75 L 176.9375 329.75 L 176.9375 401.097656 L 119.847656 401.097656 L 119.210938 407.304688 C 115.648438 446.171875 122.421875 482.027344 138 512.679688 L 143.234375 522.078125 C 146.332031 527.714844 150.050781 533.007812 153.886719 538.171875 C 157.726562 543.339844 159.113281 546.1875 161.542969 549.613281 C 202.722656 595.898438 264.121094 618.230469 335 618.230469 C 491.972656 618.230469 625.191406 548.628906 684.164062 392.265625 C 725.972656 396.558594 766.105469 385.824219 784.390625 350.097656 C 755.257812 333.273438 717.828125 338.667969 696.257812 349.519531 L 753.410156 187.042969 L 530.261719 329.738281 L 458.980469 329.738281 L 458.980469 187.042969 Z M 245.121094 187.054688 " clip-rule="nonzero"/></clipPath><clipPath id="a353de9813"><path d="M 118.050781 337 L 167 337 L 167 394 L 118.050781 394 Z M 118.050781 337 " clip-rule="nonzero"/></clipPath><clipPath id="60e83d5cbc"><path d="M 245.121094 187.054688 L 245.121094 329.75 L 176.9375 329.75 L 176.9375 401.097656 L 119.847656 401.097656 L 119.210938 407.304688 C 115.648438 446.171875 122.421875 482.027344 138 512.679688 L 143.234375 522.078125 C 146.332031 527.714844 150.050781 533.007812 153.886719 538.171875 C 157.726562 543.339844 159.113281 546.1875 161.542969 549.613281 C 202.722656 595.898438 264.121094 618.230469 335 618.230469 C 491.972656 618.230469 625.191406 548.628906 684.164062 392.265625 C 725.972656 396.558594 766.105469 385.824219 784.390625 350.097656 C 755.257812 333.273438 717.828125 338.667969 696.257812 349.519531 L 753.410156 187.042969 L 530.261719 329.738281 L 458.980469 329.738281 L 458.980469 187.042969 Z M 245.121094 187.054688 " clip-rule="nonzero"/></clipPath><clipPath id="45ff7a9a9b"><path d="M 180 334 L 243 334 L 243 397 L 180 397 Z M 180 334 " clip-rule="nonzero"/></clipPath><clipPath id="faf971e753"><path d="M 245.121094 187.054688 L 245.121094 329.75 L 176.9375 329.75 L 176.9375 401.097656 L 119.847656 401.097656 L 119.210938 407.304688 C 115.648438 446.171875 122.421875 482.027344 138 512.679688 L 143.234375 522.078125 C 146.332031 527.714844 150.050781 533.007812 153.886719 538.171875 C 157.726562 543.339844 159.113281 546.1875 161.542969 549.613281 C 202.722656 595.898438 264.121094 618.230469 335 618.230469 C 491.972656 618.230469 625.191406 548.628906 684.164062 392.265625 C 725.972656 396.558594 766.105469 385.824219 784.390625 350.097656 C 755.257812 333.273438 717.828125 338.667969 696.257812 349.519531 L 753.410156 187.042969 L 530.261719 329.738281 L 458.980469 329.738281 L 458.980469 187.042969 Z M 245.121094 187.054688 " clip-rule="nonzero"/></clipPath><clipPath id="230a54c6e4"><path d="M 180 263 L 243 263 L 243 326 L 180 326 Z M 180 263 " clip-rule="nonzero"/></clipPath><clipPath id="45938c3fc3"><path d="M 245.121094 187.054688 L 245.121094 329.75 L 176.9375 329.75 L 176.9375 401.097656 L 119.847656 401.097656 L 119.210938 407.304688 C 115.648438 446.171875 122.421875 482.027344 138 512.679688 L 143.234375 522.078125 C 146.332031 527.714844 150.050781 533.007812 153.886719 538.171875 C 157.726562 543.339844 159.113281 546.1875 161.542969 549.613281 C 202.722656 595.898438 264.121094 618.230469 335 618.230469 C 491.972656 618.230469 625.191406 548.628906 684.164062 392.265625 C 725.972656 396.558594 766.105469 385.824219 784.390625 350.097656 C 755.257812 333.273438 717.828125 338.667969 696.257812 349.519531 L 753.410156 187.042969 L 530.261719 329.738281 L 458.980469 329.738281 L 458.980469 187.042969 Z M 245.121094 187.054688 " clip-rule="nonzero"/></clipPath><clipPath id="e9ea5549a0"><path d="M 188 339 L 235 339 L 235 391 L 188 391 Z M 188 339 " clip-rule="nonzero"/></clipPath><clipPath id="48abd4f5dc"><path d="M 245.121094 187.054688 L 245.121094 329.75 L 176.9375 329.75 L 176.9375 401.097656 L 119.847656 401.097656 L 119.210938 407.304688 C 115.648438 446.171875 122.421875 482.027344 138 512.679688 L 143.234375 522.078125 C 146.332031 527.714844 150.050781 533.007812 153.886719 538.171875 C 157.726562 543.339844 159.113281 546.1875 161.542969 549.613281 C 202.722656 595.898438 264.121094 618.230469 335 618.230469 C 491.972656 618.230469 625.191406 548.628906 684.164062 392.265625 C 725.972656 396.558594 766.105469 385.824219 784.390625 350.097656 C 755.257812 333.273438 717.828125 338.667969 696.257812 349.519531 L 753.410156 187.042969 L 530.261719 329.738281 L 458.980469 329.738281 L 458.980469 187.042969 Z M 245.121094 187.054688 " clip-rule="nonzero"/></clipPath><clipPath id="ada422753a"><path d="M 185 337 L 238 337 L 238 394 L 185 394 Z M 185 337 " clip-rule="nonzero"/></clipPath><clipPath id="bdeb009d85"><path d="M 245.121094 187.054688 L 245.121094 329.75 L 176.9375 329.75 L 176.9375 401.097656 L 119.847656 401.097656 L 119.210938 407.304688 C 115.648438 446.171875 122.421875 482.027344 138 512.679688 L 143.234375 522.078125 C 146.332031 527.714844 150.050781 533.007812 153.886719 538.171875 C 157.726562 543.339844 159.113281 546.1875 161.542969 549.613281 C 202.722656 595.898438 264.121094 618.230469 335 618.230469 C 491.972656 618.230469 625.191406 548.628906 684.164062 392.265625 C 725.972656 396.558594 766.105469 385.824219 784.390625 350.097656 C 755.257812 333.273438 717.828125 338.667969 696.257812 349.519531 L 753.410156 187.042969 L 530.261719 329.738281 L 458.980469 329.738281 L 458.980469 187.042969 Z M 245.121094 187.054688 " clip-rule="nonzero"/></clipPath><clipPath id="553336cf0a"><path d="M 188 268 L 235 268 L 235 320 L 188 320 Z M 188 268 " clip-rule="nonzero"/></clipPath><clipPath id="0c5334ed09"><path d="M 245.121094 187.054688 L 245.121094 329.75 L 176.9375 329.75 L 176.9375 401.097656 L 119.847656 401.097656 L 119.210938 407.304688 C 115.648438 446.171875 122.421875 482.027344 138 512.679688 L 143.234375 522.078125 C 146.332031 527.714844 150.050781 533.007812 153.886719 538.171875 C 157.726562 543.339844 159.113281 546.1875 161.542969 549.613281 C 202.722656 595.898438 264.121094 618.230469 335 618.230469 C 491.972656 618.230469 625.191406 548.628906 684.164062 392.265625 C 725.972656 396.558594 766.105469 385.824219 784.390625 350.097656 C 755.257812 333.273438 717.828125 338.667969 696.257812 349.519531 L 753.410156 187.042969 L 530.261719 329.738281 L 458.980469 329.738281 L 458.980469 187.042969 Z M 245.121094 187.054688 " clip-rule="nonzero"/></clipPath><clipPath id="eab312deec"><path d="M 185 266 L 238 266 L 238 323 L 185 323 Z M 185 266 " clip-rule="nonzero"/></clipPath><clipPath id="8548e9ce5f"><path d="M 245.121094 187.054688 L 245.121094 329.75 L 176.9375 329.75 L 176.9375 401.097656 L 119.847656 401.097656 L 119.210938 407.304688 C 115.648438 446.171875 122.421875 482.027344 138 512.679688 L 143.234375 522.078125 C 146.332031 527.714844 150.050781 533.007812 153.886719 538.171875 C 157.726562 543.339844 159.113281 546.1875 161.542969 549.613281 C 202.722656 595.898438 264.121094 618.230469 335 618.230469 C 491.972656 618.230469 625.191406 548.628906 684.164062 392.265625 C 725.972656 396.558594 766.105469 385.824219 784.390625 350.097656 C 755.257812 333.273438 717.828125 338.667969 696.257812 349.519531 L 753.410156 187.042969 L 530.261719 329.738281 L 458.980469 329.738281 L 458.980469 187.042969 Z M 245.121094 187.054688 " clip-rule="nonzero"/></clipPath><clipPath id="3bcd16c748"><path d="M 251 263 L 314 263 L 314 326 L 251 326 Z M 251 263 " clip-rule="nonzero"/></clipPath><clipPath id="f7ae608a96"><path d="M 245.121094 187.054688 L 245.121094 329.75 L 176.9375 329.75 L 176.9375 401.097656 L 119.847656 401.097656 L 119.210938 407.304688 C 115.648438 446.171875 122.421875 482.027344 138 512.679688 L 143.234375 522.078125 C 146.332031 527.714844 150.050781 533.007812 153.886719 538.171875 C 157.726562 543.339844 159.113281 546.1875 161.542969 549.613281 C 202.722656 595.898438 264.121094 618.230469 335 618.230469 C 491.972656 618.230469 625.191406 548.628906 684.164062 392.265625 C 725.972656 396.558594 766.105469 385.824219 784.390625 350.097656 C 755.257812 333.273438 717.828125 338.667969 696.257812 349.519531 L 753.410156 187.042969 L 530.261719 329.738281 L 458.980469 329.738281 L 458.980469 187.042969 Z M 245.121094 187.054688 " clip-rule="nonzero"/></clipPath><clipPath id="f262aabbb6"><path d="M 251 334 L 314 334 L 314 397 L 251 397 Z M 251 334 " clip-rule="nonzero"/></clipPath><clipPath id="c607f9befe"><path d="M 245.121094 187.054688 L 245.121094 329.75 L 176.9375 329.75 L 176.9375 401.097656 L 119.847656 401.097656 L 119.210938 407.304688 C 115.648438 446.171875 122.421875 482.027344 138 512.679688 L 143.234375 522.078125 C 146.332031 527.714844 150.050781 533.007812 153.886719 538.171875 C 157.726562 543.339844 159.113281 546.1875 161.542969 549.613281 C 202.722656 595.898438 264.121094 618.230469 335 618.230469 C 491.972656 618.230469 625.191406 548.628906 684.164062 392.265625 C 725.972656 396.558594 766.105469 385.824219 784.390625 350.097656 C 755.257812 333.273438 717.828125 338.667969 696.257812 349.519531 L 753.410156 187.042969 L 530.261719 329.738281 L 458.980469 329.738281 L 458.980469 187.042969 Z M 245.121094 187.054688 " clip-rule="nonzero"/></clipPath><clipPath id="2d393bd8ad"><path d="M 259 268 L 306 268 L 306 320 L 259 320 Z M 259 268 " clip-rule="nonzero"/></clipPath><clipPath id="d996bb7281"><path d="M 245.121094 187.054688 L 245.121094 329.75 L 176.9375 329.75 L 176.9375 401.097656 L 119.847656 401.097656 L 119.210938 407.304688 C 115.648438 446.171875 122.421875 482.027344 138 512.679688 L 143.234375 522.078125 C 146.332031 527.714844 150.050781 533.007812 153.886719 538.171875 C 157.726562 543.339844 159.113281 546.1875 161.542969 549.613281 C 202.722656 595.898438 264.121094 618.230469 335 618.230469 C 491.972656 618.230469 625.191406 548.628906 684.164062 392.265625 C 725.972656 396.558594 766.105469 385.824219 784.390625 350.097656 C 755.257812 333.273438 717.828125 338.667969 696.257812 349.519531 L 753.410156 187.042969 L 530.261719 329.738281 L 458.980469 329.738281 L 458.980469 187.042969 Z M 245.121094 187.054688 " clip-rule="nonzero"/></clipPath><clipPath id="56f02d7db4"><path d="M 256 266 L 308 266 L 308 323 L 256 323 Z M 256 266 " clip-rule="nonzero"/></clipPath><clipPath id="61c30dd161"><path d="M 245.121094 187.054688 L 245.121094 329.75 L 176.9375 329.75 L 176.9375 401.097656 L 119.847656 401.097656 L 119.210938 407.304688 C 115.648438 446.171875 122.421875 482.027344 138 512.679688 L 143.234375 522.078125 C 146.332031 527.714844 150.050781 533.007812 153.886719 538.171875 C 157.726562 543.339844 159.113281 546.1875 161.542969 549.613281 C 202.722656 595.898438 264.121094 618.230469 335 618.230469 C 491.972656 618.230469 625.191406 548.628906 684.164062 392.265625 C 725.972656 396.558594 766.105469 385.824219 784.390625 350.097656 C 755.257812 333.273438 717.828125 338.667969 696.257812 349.519531 L 753.410156 187.042969 L 530.261719 329.738281 L 458.980469 329.738281 L 458.980469 187.042969 Z M 245.121094 187.054688 " clip-rule="nonzero"/></clipPath><clipPath id="4c7112aa04"><path d="M 259 339 L 306 339 L 306 391 L 259 391 Z M 259 339 " clip-rule="nonzero"/></clipPath><clipPath id="5052c86dc5"><path d="M 245.121094 187.054688 L 245.121094 329.75 L 176.9375 329.75 L 176.9375 401.097656 L 119.847656 401.097656 L 119.210938 407.304688 C 115.648438 446.171875 122.421875 482.027344 138 512.679688 L 143.234375 522.078125 C 146.332031 527.714844 150.050781 533.007812 153.886719 538.171875 C 157.726562 543.339844 159.113281 546.1875 161.542969 549.613281 C 202.722656 595.898438 264.121094 618.230469 335 618.230469 C 491.972656 618.230469 625.191406 548.628906 684.164062 392.265625 C 725.972656 396.558594 766.105469 385.824219 784.390625 350.097656 C 755.257812 333.273438 717.828125 338.667969 696.257812 349.519531 L 753.410156 187.042969 L 530.261719 329.738281 L 458.980469 329.738281 L 458.980469 187.042969 Z M 245.121094 187.054688 " clip-rule="nonzero"/></clipPath><clipPath id="419d4ee236"><path d="M 256 337 L 308 337 L 308 394 L 256 394 Z M 256 337 " clip-rule="nonzero"/></clipPath><clipPath id="99db87747f"><path d="M 245.121094 187.054688 L 245.121094 329.75 L 176.9375 329.75 L 176.9375 401.097656 L 119.847656 401.097656 L 119.210938 407.304688 C 115.648438 446.171875 122.421875 482.027344 138 512.679688 L 143.234375 522.078125 C 146.332031 527.714844 150.050781 533.007812 153.886719 538.171875 C 157.726562 543.339844 159.113281 546.1875 161.542969 549.613281 C 202.722656 595.898438 264.121094 618.230469 335 618.230469 C 491.972656 618.230469 625.191406 548.628906 684.164062 392.265625 C 725.972656 396.558594 766.105469 385.824219 784.390625 350.097656 C 755.257812 333.273438 717.828125 338.667969 696.257812 349.519531 L 753.410156 187.042969 L 530.261719 329.738281 L 458.980469 329.738281 L 458.980469 187.042969 Z M 245.121094 187.054688 " clip-rule="nonzero"/></clipPath><clipPath id="f6d9c056fb"><path d="M 322 334 L 385 334 L 385 397 L 322 397 Z M 322 334 " clip-rule="nonzero"/></clipPath><clipPath id="48f26d8946"><path d="M 245.121094 187.054688 L 245.121094 329.75 L 176.9375 329.75 L 176.9375 401.097656 L 119.847656 401.097656 L 119.210938 407.304688 C 115.648438 446.171875 122.421875 482.027344 138 512.679688 L 143.234375 522.078125 C 146.332031 527.714844 150.050781 533.007812 153.886719 538.171875 C 157.726562 543.339844 159.113281 546.1875 161.542969 549.613281 C 202.722656 595.898438 264.121094 618.230469 335 618.230469 C 491.972656 618.230469 625.191406 548.628906 684.164062 392.265625 C 725.972656 396.558594 766.105469 385.824219 784.390625 350.097656 C 755.257812 333.273438 717.828125 338.667969 696.257812 349.519531 L 753.410156 187.042969 L 530.261719 329.738281 L 458.980469 329.738281 L 458.980469 187.042969 Z M 245.121094 187.054688 " clip-rule="nonzero"/></clipPath><clipPath id="9ff1117e62"><path d="M 322 263 L 385 263 L 385 326 L 322 326 Z M 322 263 " clip-rule="nonzero"/></clipPath><clipPath id="6672fad78c"><path d="M 245.121094 187.054688 L 245.121094 329.75 L 176.9375 329.75 L 176.9375 401.097656 L 119.847656 401.097656 L 119.210938 407.304688 C 115.648438 446.171875 122.421875 482.027344 138 512.679688 L 143.234375 522.078125 C 146.332031 527.714844 150.050781 533.007812 153.886719 538.171875 C 157.726562 543.339844 159.113281 546.1875 161.542969 549.613281 C 202.722656 595.898438 264.121094 618.230469 335 618.230469 C 491.972656 618.230469 625.191406 548.628906 684.164062 392.265625 C 725.972656 396.558594 766.105469 385.824219 784.390625 350.097656 C 755.257812 333.273438 717.828125 338.667969 696.257812 349.519531 L 753.410156 187.042969 L 530.261719 329.738281 L 458.980469 329.738281 L 458.980469 187.042969 Z M 245.121094 187.054688 " clip-rule="nonzero"/></clipPath><clipPath id="21e3fa4296"><path d="M 330 339 L 377 339 L 377 391 L 330 391 Z M 330 339 " clip-rule="nonzero"/></clipPath><clipPath id="e497cbf221"><path d="M 245.121094 187.054688 L 245.121094 329.75 L 176.9375 329.75 L 176.9375 401.097656 L 119.847656 401.097656 L 119.210938 407.304688 C 115.648438 446.171875 122.421875 482.027344 138 512.679688 L 143.234375 522.078125 C 146.332031 527.714844 150.050781 533.007812 153.886719 538.171875 C 157.726562 543.339844 159.113281 546.1875 161.542969 549.613281 C 202.722656 595.898438 264.121094 618.230469 335 618.230469 C 491.972656 618.230469 625.191406 548.628906 684.164062 392.265625 C 725.972656 396.558594 766.105469 385.824219 784.390625 350.097656 C 755.257812 333.273438 717.828125 338.667969 696.257812 349.519531 L 753.410156 187.042969 L 530.261719 329.738281 L 458.980469 329.738281 L 458.980469 187.042969 Z M 245.121094 187.054688 " clip-rule="nonzero"/></clipPath><clipPath id="16194be553"><path d="M 327 337 L 379 337 L 379 394 L 327 394 Z M 327 337 " clip-rule="nonzero"/></clipPath><clipPath id="fc1bf2c4a5"><path d="M 245.121094 187.054688 L 245.121094 329.75 L 176.9375 329.75 L 176.9375 401.097656 L 119.847656 401.097656 L 119.210938 407.304688 C 115.648438 446.171875 122.421875 482.027344 138 512.679688 L 143.234375 522.078125 C 146.332031 527.714844 150.050781 533.007812 153.886719 538.171875 C 157.726562 543.339844 159.113281 546.1875 161.542969 549.613281 C 202.722656 595.898438 264.121094 618.230469 335 618.230469 C 491.972656 618.230469 625.191406 548.628906 684.164062 392.265625 C 725.972656 396.558594 766.105469 385.824219 784.390625 350.097656 C 755.257812 333.273438 717.828125 338.667969 696.257812 349.519531 L 753.410156 187.042969 L 530.261719 329.738281 L 458.980469 329.738281 L 458.980469 187.042969 Z M 245.121094 187.054688 " clip-rule="nonzero"/></clipPath><clipPath id="b70375af35"><path d="M 330 268 L 377 268 L 377 320 L 330 320 Z M 330 268 " clip-rule="nonzero"/></clipPath><clipPath id="c6a89b2dcc"><path d="M 245.121094 187.054688 L 245.121094 329.75 L 176.9375 329.75 L 176.9375 401.097656 L 119.847656 401.097656 L 119.210938 407.304688 C 115.648438 446.171875 122.421875 482.027344 138 512.679688 L 143.234375 522.078125 C 146.332031 527.714844 150.050781 533.007812 153.886719 538.171875 C 157.726562 543.339844 159.113281 546.1875 161.542969 549.613281 C 202.722656 595.898438 264.121094 618.230469 335 618.230469 C 491.972656 618.230469 625.191406 548.628906 684.164062 392.265625 C 725.972656 396.558594 766.105469 385.824219 784.390625 350.097656 C 755.257812 333.273438 717.828125 338.667969 696.257812 349.519531 L 753.410156 187.042969 L 530.261719 329.738281 L 458.980469 329.738281 L 458.980469 187.042969 Z M 245.121094 187.054688 " clip-rule="nonzero"/></clipPath><clipPath id="e24f654d62"><path d="M 327 266 L 379 266 L 379 323 L 327 323 Z M 327 266 " clip-rule="nonzero"/></clipPath><clipPath id="fb735e25da"><path d="M 245.121094 187.054688 L 245.121094 329.75 L 176.9375 329.75 L 176.9375 401.097656 L 119.847656 401.097656 L 119.210938 407.304688 C 115.648438 446.171875 122.421875 482.027344 138 512.679688 L 143.234375 522.078125 C 146.332031 527.714844 150.050781 533.007812 153.886719 538.171875 C 157.726562 543.339844 159.113281 546.1875 161.542969 549.613281 C 202.722656 595.898438 264.121094 618.230469 335 618.230469 C 491.972656 618.230469 625.191406 548.628906 684.164062 392.265625 C 725.972656 396.558594 766.105469 385.824219 784.390625 350.097656 C 755.257812 333.273438 717.828125 338.667969 696.257812 349.519531 L 753.410156 187.042969 L 530.261719 329.738281 L 458.980469 329.738281 L 458.980469 187.042969 Z M 245.121094 187.054688 " clip-rule="nonzero"/></clipPath><clipPath id="f8bba396b5"><path d="M 393 263 L 455 263 L 455 326 L 393 326 Z M 393 263 " clip-rule="nonzero"/></clipPath><clipPath id="f2afa72eed"><path d="M 245.121094 187.054688 L 245.121094 329.75 L 176.9375 329.75 L 176.9375 401.097656 L 119.847656 401.097656 L 119.210938 407.304688 C 115.648438 446.171875 122.421875 482.027344 138 512.679688 L 143.234375 522.078125 C 146.332031 527.714844 150.050781 533.007812 153.886719 538.171875 C 157.726562 543.339844 159.113281 546.1875 161.542969 549.613281 C 202.722656 595.898438 264.121094 618.230469 335 618.230469 C 491.972656 618.230469 625.191406 548.628906 684.164062 392.265625 C 725.972656 396.558594 766.105469 385.824219 784.390625 350.097656 C 755.257812 333.273438 717.828125 338.667969 696.257812 349.519531 L 753.410156 187.042969 L 530.261719 329.738281 L 458.980469 329.738281 L 458.980469 187.042969 Z M 245.121094 187.054688 " clip-rule="nonzero"/></clipPath><clipPath id="d670091dee"><path d="M 393 334 L 455 334 L 455 397 L 393 397 Z M 393 334 " clip-rule="nonzero"/></clipPath><clipPath id="af5f57c034"><path d="M 245.121094 187.054688 L 245.121094 329.75 L 176.9375 329.75 L 176.9375 401.097656 L 119.847656 401.097656 L 119.210938 407.304688 C 115.648438 446.171875 122.421875 482.027344 138 512.679688 L 143.234375 522.078125 C 146.332031 527.714844 150.050781 533.007812 153.886719 538.171875 C 157.726562 543.339844 159.113281 546.1875 161.542969 549.613281 C 202.722656 595.898438 264.121094 618.230469 335 618.230469 C 491.972656 618.230469 625.191406 548.628906 684.164062 392.265625 C 725.972656 396.558594 766.105469 385.824219 784.390625 350.097656 C 755.257812 333.273438 717.828125 338.667969 696.257812 349.519531 L 753.410156 187.042969 L 530.261719 329.738281 L 458.980469 329.738281 L 458.980469 187.042969 Z M 245.121094 187.054688 " clip-rule="nonzero"/></clipPath><clipPath id="ecdc5de01a"><path d="M 400 268 L 448 268 L 448 320 L 400 320 Z M 400 268 " clip-rule="nonzero"/></clipPath><clipPath id="733e3f7257"><path d="M 245.121094 187.054688 L 245.121094 329.75 L 176.9375 329.75 L 176.9375 401.097656 L 119.847656 401.097656 L 119.210938 407.304688 C 115.648438 446.171875 122.421875 482.027344 138 512.679688 L 143.234375 522.078125 C 146.332031 527.714844 150.050781 533.007812 153.886719 538.171875 C 157.726562 543.339844 159.113281 546.1875 161.542969 549.613281 C 202.722656 595.898438 264.121094 618.230469 335 618.230469 C 491.972656 618.230469 625.191406 548.628906 684.164062 392.265625 C 725.972656 396.558594 766.105469 385.824219 784.390625 350.097656 C 755.257812 333.273438 717.828125 338.667969 696.257812 349.519531 L 753.410156 187.042969 L 530.261719 329.738281 L 458.980469 329.738281 L 458.980469 187.042969 Z M 245.121094 187.054688 " clip-rule="nonzero"/></clipPath><clipPath id="b56bc47038"><path d="M 398 266 L 450 266 L 450 323 L 398 323 Z M 398 266 " clip-rule="nonzero"/></clipPath><clipPath id="1f302045e2"><path d="M 245.121094 187.054688 L 245.121094 329.75 L 176.9375 329.75 L 176.9375 401.097656 L 119.847656 401.097656 L 119.210938 407.304688 C 115.648438 446.171875 122.421875 482.027344 138 512.679688 L 143.234375 522.078125 C 146.332031 527.714844 150.050781 533.007812 153.886719 538.171875 C 157.726562 543.339844 159.113281 546.1875 161.542969 549.613281 C 202.722656 595.898438 264.121094 618.230469 335 618.230469 C 491.972656 618.230469 625.191406 548.628906 684.164062 392.265625 C 725.972656 396.558594 766.105469 385.824219 784.390625 350.097656 C 755.257812 333.273438 717.828125 338.667969 696.257812 349.519531 L 753.410156 187.042969 L 530.261719 329.738281 L 458.980469 329.738281 L 458.980469 187.042969 Z M 245.121094 187.054688 " clip-rule="nonzero"/></clipPath><clipPath id="7ceb145564"><path d="M 400 339 L 448 339 L 448 391 L 400 391 Z M 400 339 " clip-rule="nonzero"/></clipPath><clipPath id="9f887e676d"><path d="M 245.121094 187.054688 L 245.121094 329.75 L 176.9375 329.75 L 176.9375 401.097656 L 119.847656 401.097656 L 119.210938 407.304688 C 115.648438 446.171875 122.421875 482.027344 138 512.679688 L 143.234375 522.078125 C 146.332031 527.714844 150.050781 533.007812 153.886719 538.171875 C 157.726562 543.339844 159.113281 546.1875 161.542969 549.613281 C 202.722656 595.898438 264.121094 618.230469 335 618.230469 C 491.972656 618.230469 625.191406 548.628906 684.164062 392.265625 C 725.972656 396.558594 766.105469 385.824219 784.390625 350.097656 C 755.257812 333.273438 717.828125 338.667969 696.257812 349.519531 L 753.410156 187.042969 L 530.261719 329.738281 L 458.980469 329.738281 L 458.980469 187.042969 Z M 245.121094 187.054688 " clip-rule="nonzero"/></clipPath><clipPath id="3f1cd80c42"><path d="M 398 337 L 450 337 L 450 394 L 398 394 Z M 398 337 " clip-rule="nonzero"/></clipPath><clipPath id="a39b6cfb00"><path d="M 245.121094 187.054688 L 245.121094 329.75 L 176.9375 329.75 L 176.9375 401.097656 L 119.847656 401.097656 L 119.210938 407.304688 C 115.648438 446.171875 122.421875 482.027344 138 512.679688 L 143.234375 522.078125 C 146.332031 527.714844 150.050781 533.007812 153.886719 538.171875 C 157.726562 543.339844 159.113281 546.1875 161.542969 549.613281 C 202.722656 595.898438 264.121094 618.230469 335 618.230469 C 491.972656 618.230469 625.191406 548.628906 684.164062 392.265625 C 725.972656 396.558594 766.105469 385.824219 784.390625 350.097656 C 755.257812 333.273438 717.828125 338.667969 696.257812 349.519531 L 753.410156 187.042969 L 530.261719 329.738281 L 458.980469 329.738281 L 458.980469 187.042969 Z M 245.121094 187.054688 " clip-rule="nonzero"/></clipPath><clipPath id="5824acd626"><path d="M 464 334 L 526 334 L 526 397 L 464 397 Z M 464 334 " clip-rule="nonzero"/></clipPath><clipPath id="515094ac86"><path d="M 245.121094 187.054688 L 245.121094 329.75 L 176.9375 329.75 L 176.9375 401.097656 L 119.847656 401.097656 L 119.210938 407.304688 C 115.648438 446.171875 122.421875 482.027344 138 512.679688 L 143.234375 522.078125 C 146.332031 527.714844 150.050781 533.007812 153.886719 538.171875 C 157.726562 543.339844 159.113281 546.1875 161.542969 549.613281 C 202.722656 595.898438 264.121094 618.230469 335 618.230469 C 491.972656 618.230469 625.191406 548.628906 684.164062 392.265625 C 725.972656 396.558594 766.105469 385.824219 784.390625 350.097656 C 755.257812 333.273438 717.828125 338.667969 696.257812 349.519531 L 753.410156 187.042969 L 530.261719 329.738281 L 458.980469 329.738281 L 458.980469 187.042969 Z M 245.121094 187.054688 " clip-rule="nonzero"/></clipPath><clipPath id="bc4133b5e6"><path d="M 464 263 L 526 263 L 526 326 L 464 326 Z M 464 263 " clip-rule="nonzero"/></clipPath><clipPath id="da6da3472e"><path d="M 245.121094 187.054688 L 245.121094 329.75 L 176.9375 329.75 L 176.9375 401.097656 L 119.847656 401.097656 L 119.210938 407.304688 C 115.648438 446.171875 122.421875 482.027344 138 512.679688 L 143.234375 522.078125 C 146.332031 527.714844 150.050781 533.007812 153.886719 538.171875 C 157.726562 543.339844 159.113281 546.1875 161.542969 549.613281 C 202.722656 595.898438 264.121094 618.230469 335 618.230469 C 491.972656 618.230469 625.191406 548.628906 684.164062 392.265625 C 725.972656 396.558594 766.105469 385.824219 784.390625 350.097656 C 755.257812 333.273438 717.828125 338.667969 696.257812 349.519531 L 753.410156 187.042969 L 530.261719 329.738281 L 458.980469 329.738281 L 458.980469 187.042969 Z M 245.121094 187.054688 " clip-rule="nonzero"/></clipPath><clipPath id="37258f1e07"><path d="M 471 339 L 519 339 L 519 391 L 471 391 Z M 471 339 " clip-rule="nonzero"/></clipPath><clipPath id="966987520f"><path d="M 245.121094 187.054688 L 245.121094 329.75 L 176.9375 329.75 L 176.9375 401.097656 L 119.847656 401.097656 L 119.210938 407.304688 C 115.648438 446.171875 122.421875 482.027344 138 512.679688 L 143.234375 522.078125 C 146.332031 527.714844 150.050781 533.007812 153.886719 538.171875 C 157.726562 543.339844 159.113281 546.1875 161.542969 549.613281 C 202.722656 595.898438 264.121094 618.230469 335 618.230469 C 491.972656 618.230469 625.191406 548.628906 684.164062 392.265625 C 725.972656 396.558594 766.105469 385.824219 784.390625 350.097656 C 755.257812 333.273438 717.828125 338.667969 696.257812 349.519531 L 753.410156 187.042969 L 530.261719 329.738281 L 458.980469 329.738281 L 458.980469 187.042969 Z M 245.121094 187.054688 " clip-rule="nonzero"/></clipPath><clipPath id="f2bf30c4d6"><path d="M 469 337 L 521 337 L 521 394 L 469 394 Z M 469 337 " clip-rule="nonzero"/></clipPath><clipPath id="3577a0329c"><path d="M 245.121094 187.054688 L 245.121094 329.75 L 176.9375 329.75 L 176.9375 401.097656 L 119.847656 401.097656 L 119.210938 407.304688 C 115.648438 446.171875 122.421875 482.027344 138 512.679688 L 143.234375 522.078125 C 146.332031 527.714844 150.050781 533.007812 153.886719 538.171875 C 157.726562 543.339844 159.113281 546.1875 161.542969 549.613281 C 202.722656 595.898438 264.121094 618.230469 335 618.230469 C 491.972656 618.230469 625.191406 548.628906 684.164062 392.265625 C 725.972656 396.558594 766.105469 385.824219 784.390625 350.097656 C 755.257812 333.273438 717.828125 338.667969 696.257812 349.519531 L 753.410156 187.042969 L 530.261719 329.738281 L 458.980469 329.738281 L 458.980469 187.042969 Z M 245.121094 187.054688 " clip-rule="nonzero"/></clipPath><clipPath id="e546211433"><path d="M 471 268 L 519 268 L 519 320 L 471 320 Z M 471 268 " clip-rule="nonzero"/></clipPath><clipPath id="b020e2e270"><path d="M 245.121094 187.054688 L 245.121094 329.75 L 176.9375 329.75 L 176.9375 401.097656 L 119.847656 401.097656 L 119.210938 407.304688 C 115.648438 446.171875 122.421875 482.027344 138 512.679688 L 143.234375 522.078125 C 146.332031 527.714844 150.050781 533.007812 153.886719 538.171875 C 157.726562 543.339844 159.113281 546.1875 161.542969 549.613281 C 202.722656 595.898438 264.121094 618.230469 335 618.230469 C 491.972656 618.230469 625.191406 548.628906 684.164062 392.265625 C 725.972656 396.558594 766.105469 385.824219 784.390625 350.097656 C 755.257812 333.273438 717.828125 338.667969 696.257812 349.519531 L 753.410156 187.042969 L 530.261719 329.738281 L 458.980469 329.738281 L 458.980469 187.042969 Z M 245.121094 187.054688 " clip-rule="nonzero"/></clipPath><clipPath id="c51d8d0b06"><path d="M 469 266 L 521 266 L 521 323 L 469 323 Z M 469 266 " clip-rule="nonzero"/></clipPath><clipPath id="e53b9b7402"><path d="M 245.121094 187.054688 L 245.121094 329.75 L 176.9375 329.75 L 176.9375 401.097656 L 119.847656 401.097656 L 119.210938 407.304688 C 115.648438 446.171875 122.421875 482.027344 138 512.679688 L 143.234375 522.078125 C 146.332031 527.714844 150.050781 533.007812 153.886719 538.171875 C 157.726562 543.339844 159.113281 546.1875 161.542969 549.613281 C 202.722656 595.898438 264.121094 618.230469 335 618.230469 C 491.972656 618.230469 625.191406 548.628906 684.164062 392.265625 C 725.972656 396.558594 766.105469 385.824219 784.390625 350.097656 C 755.257812 333.273438 717.828125 338.667969 696.257812 349.519531 L 753.410156 187.042969 L 530.261719 329.738281 L 458.980469 329.738281 L 458.980469 187.042969 Z M 245.121094 187.054688 " clip-rule="nonzero"/></clipPath><clipPath id="1bf15985d0"><path d="M 118.050781 269 L 784.390625 269 L 784.390625 618.246094 L 118.050781 618.246094 Z M 118.050781 269 " clip-rule="nonzero"/></clipPath><clipPath id="e053fd4bd5"><path d="M 245.121094 187.054688 L 245.121094 329.75 L 176.9375 329.75 L 176.9375 401.097656 L 119.847656 401.097656 L 119.210938 407.304688 C 115.648438 446.171875 122.421875 482.027344 138 512.679688 L 143.234375 522.078125 C 146.332031 527.714844 150.050781 533.007812 153.886719 538.171875 C 157.726562 543.339844 159.113281 546.1875 161.542969 549.613281 C 202.722656 595.898438 264.121094 618.230469 335 618.230469 C 491.972656 618.230469 625.191406 548.628906 684.164062 392.265625 C 725.972656 396.558594 766.105469 385.824219 784.390625 350.097656 C 755.257812 333.273438 717.828125 338.667969 696.257812 349.519531 L 753.410156 187.042969 L 530.261719 329.738281 L 458.980469 329.738281 L 458.980469 187.042969 Z M 245.121094 187.054688 " clip-rule="nonzero"/></clipPath><clipPath id="f26a53a4aa"><path d="M 118.050781 456 L 784.390625 456 L 784.390625 618.246094 L 118.050781 618.246094 Z M 118.050781 456 " clip-rule="nonzero"/></clipPath><clipPath id="10182aad51"><path d="M 245.121094 187.054688 L 245.121094 329.75 L 176.9375 329.75 L 176.9375 401.097656 L 119.847656 401.097656 L 119.210938 407.304688 C 115.648438 446.171875 122.421875 482.027344 138 512.679688 L 143.234375 522.078125 C 146.332031 527.714844 150.050781 533.007812 153.886719 538.171875 C 157.726562 543.339844 159.113281 546.1875 161.542969 549.613281 C 202.722656 595.898438 264.121094 618.230469 335 618.230469 C 491.972656 618.230469 625.191406 548.628906 684.164062 392.265625 C 725.972656 396.558594 766.105469 385.824219 784.390625 350.097656 C 755.257812 333.273438 717.828125 338.667969 696.257812 349.519531 L 753.410156 187.042969 L 530.261719 329.738281 L 458.980469 329.738281 L 458.980469 187.042969 Z M 245.121094 187.054688 " clip-rule="nonzero"/></clipPath><clipPath id="9165abd3a8"><path d="M 149 541 L 355 541 L 355 618.246094 L 149 618.246094 Z M 149 541 " clip-rule="nonzero"/></clipPath><clipPath id="414e720c81"><path d="M 245.121094 187.054688 L 245.121094 329.75 L 176.9375 329.75 L 176.9375 401.097656 L 119.847656 401.097656 L 119.210938 407.304688 C 115.648438 446.171875 122.421875 482.027344 138 512.679688 L 143.234375 522.078125 C 146.332031 527.714844 150.050781 533.007812 153.886719 538.171875 C 157.726562 543.339844 159.113281 546.1875 161.542969 549.613281 C 202.722656 595.898438 264.121094 618.230469 335 618.230469 C 491.972656 618.230469 625.191406 548.628906 684.164062 392.265625 C 725.972656 396.558594 766.105469 385.824219 784.390625 350.097656 C 755.257812 333.273438 717.828125 338.667969 696.257812 349.519531 L 753.410156 187.042969 L 530.261719 329.738281 L 458.980469 329.738281 L 458.980469 187.042969 Z M 245.121094 187.054688 " clip-rule="nonzero"/></clipPath><clipPath id="9406ed3d21"><path d="M 118.050781 335 L 784.390625 335 L 784.390625 618.246094 L 118.050781 618.246094 Z M 118.050781 335 " clip-rule="nonzero"/></clipPath><clipPath id="5f424a3e98"><path d="M 245.121094 187.054688 L 245.121094 329.75 L 176.9375 329.75 L 176.9375 401.097656 L 119.847656 401.097656 L 119.210938 407.304688 C 115.648438 446.171875 122.421875 482.027344 138 512.679688 L 143.234375 522.078125 C 146.332031 527.714844 150.050781 533.007812 153.886719 538.171875 C 157.726562 543.339844 159.113281 546.1875 161.542969 549.613281 C 202.722656 595.898438 264.121094 618.230469 335 618.230469 C 491.972656 618.230469 625.191406 548.628906 684.164062 392.265625 C 725.972656 396.558594 766.105469 385.824219 784.390625 350.097656 C 755.257812 333.273438 717.828125 338.667969 696.257812 349.519531 L 753.410156 187.042969 L 530.261719 329.738281 L 458.980469 329.738281 L 458.980469 187.042969 Z M 245.121094 187.054688 " clip-rule="nonzero"/></clipPath></defs><g clip-path="url(#71b2964e31)"><path fill="#313f52" d="M 466.671875 322.71875 L 537.53125 322.71875 L 537.53125 395.222656 L 573.363281 395.222656 C 590.226562 395.140625 606.640625 392.386719 622.605469 386.957031 C 630.328125 384.335938 638.953125 380.707031 646.539062 376.136719 C 636.539062 363.070312 631.433594 346.574219 629.757812 330.277344 C 627.710938 308.152344 632.171875 279.34375 647.144531 262.023438 L 654.597656 253.40625 L 663.492188 260.546875 C 685.847656 278.519531 704.644531 303.632812 707.96875 332.277344 C 734.871094 324.347656 766.476562 326.230469 790.207031 339.9375 L 799.941406 345.566406 L 794.824219 355.578125 C 774.902344 394.71875 732.941406 406.863281 691.941406 404.714844 C 630.578125 557.667969 497 630.085938 335.035156 630.085938 C 251.355469 630.085938 174.585938 598.773438 130.882812 524.472656 C 128.3125 519.851562 126.132812 515.03125 123.796875 510.292969 C 109.027344 477.585938 104.109375 441.753906 107.433594 406.140625 L 108.441406 395.421875 L 168.863281 395.421875 L 168.863281 322.769531 L 239.722656 322.769531 L 239.722656 251.84375 L 381.460938 251.84375 L 381.460938 180.917969 L 466.503906 180.917969 L 466.503906 322.785156 " fill-opacity="1" fill-rule="nonzero"/></g><g clip-path="url(#6b55478a7b)"><g clip-path="url(#85c43a4e07)"><path fill="#71859f" d="M 393.453125 192.671875 L 454.875 192.671875 L 454.875 254.148438 L 393.445312 254.148438 Z M 393.453125 192.671875 " fill-opacity="1" fill-rule="nonzero"/></g></g><g clip-path="url(#91cebfd08a)"><g clip-path="url(#1fe0aa6fbf)"><path fill="#000000" d="M 400.984375 249.027344 L 400.984375 197.789062 M 410.195312 249.023438 L 410.195312 197.789062 M 419.5 249.023438 L 419.5 197.789062 M 428.804688 249.023438 L 428.804688 197.789062 M 438.113281 249.023438 L 438.113281 197.789062 M 447.316406 249.023438 L 447.316406 197.789062 " fill-opacity="1" fill-rule="nonzero"/></g></g><g clip-path="url(#fc6cb71a22)"><g clip-path="url(#bd43ef29f0)"><path stroke-linecap="butt" transform="matrix(3.099259, 0, 0, 3.102075, 9.57764, 180.851817)" fill="none" stroke-linejoin="miter" d="M 126.290405 21.977395 L 126.290405 5.459973 M 129.262385 21.976136 L 129.262385 5.459973 M 132.264614 21.976136 L 132.264614 5.459973 M 135.266844 21.976136 L 135.266844 5.459973 M 138.270333 21.976136 L 138.270333 5.459973 M 141.239793 21.976136 L 141.239793 5.459973 " stroke="#394d54" stroke-width="1.56" stroke-opacity="1" stroke-miterlimit="4"/></g></g><g clip-path="url(#b9cb1b09bc)"><g clip-path="url(#d13f3ce6f5)"><path fill="#71859f" d="M 464.320312 254.179688 L 525.742188 254.179688 L 525.742188 192.707031 L 464.3125 192.707031 Z M 464.320312 254.179688 " fill-opacity="1" fill-rule="nonzero"/></g></g><g clip-path="url(#29c903cec3)"><g clip-path="url(#2a30fed841)"><path fill="#71859f" d="M 471.851562 197.792969 L 471.851562 249.03125 M 481.0625 197.796875 L 481.0625 249.03125 M 490.367188 197.796875 L 490.367188 249.03125 M 499.671875 197.796875 L 499.671875 249.03125 M 508.980469 197.796875 L 508.980469 249.03125 M 518.183594 197.796875 L 518.183594 249.03125 " fill-opacity="1" fill-rule="nonzero"/></g></g><g clip-path="url(#cf4cc5aeb7)"><g clip-path="url(#0fba6556a4)"><path stroke-linecap="butt" transform="matrix(3.099259, 0, 0, -3.102075, 80.445307, 265.968727)" fill="none" stroke-linejoin="miter" d="M 126.290251 21.977469 L 126.290251 5.460047 M 129.262231 21.97621 L 129.262231 5.460047 M 132.26446 21.97621 L 132.26446 5.460047 M 135.266689 21.97621 L 135.266689 5.460047 M 138.270179 21.97621 L 138.270179 5.460047 M 141.239638 21.97621 L 141.239638 5.460047 " stroke="#394d54" stroke-width="1.56" stroke-opacity="1" stroke-miterlimit="4"/></g></g><g clip-path="url(#6a6212caf2)"><g clip-path="url(#a9c46f6bc2)"><path fill="##71859f" d="M 109.980469 263.570312 L 171.402344 263.570312 L 171.402344 325.046875 L 109.976562 325.046875 Z M 109.980469 263.570312 " fill-opacity="1" fill-rule="nonzero"/></g></g><g clip-path="url(#90cd258a77)"><g clip-path="url(#cddea0a45f)"><path fill="#71859f" d="M 109.980469 334.535156 L 171.402344 334.535156 L 171.402344 396.011719 L 109.976562 396.011719 Z M 109.980469 334.535156 " fill-opacity="1" fill-rule="nonzero"/></g></g><g clip-path="url(#4d25bf552e)"><g clip-path="url(#c847a6747c)"><path fill="#71859f" d="M 117.511719 319.957031 L 117.511719 268.722656 M 126.722656 319.953125 L 126.722656 268.722656 M 136.027344 319.953125 L 136.027344 268.722656 M 145.335938 319.953125 L 145.335938 268.722656 M 154.640625 319.953125 L 154.640625 268.722656 M 163.847656 319.953125 L 163.847656 268.722656 " fill-opacity="1" fill-rule="nonzero"/></g></g><g clip-path="url(#7fff57a7a2)"><g clip-path="url(#3b44770378)"><path stroke-linecap="butt" transform="matrix(3.099259, 0, 0, 3.102075, -273.893011, 251.783856)" fill="none" stroke-linejoin="miter" d="M 126.289758 21.976637 L 126.289758 5.460474 M 129.261738 21.975378 L 129.261738 5.460474 M 132.263967 21.975378 L 132.263967 5.460474 M 135.267457 21.975378 L 135.267457 5.460474 M 138.269686 21.975378 L 138.269686 5.460474 M 141.240406 21.975378 L 141.240406 5.460474 " stroke="#394d54" stroke-width="1.56" stroke-opacity="1" stroke-miterlimit="4"/></g></g><g clip-path="url(#8c654f4b7b)"><g clip-path="url(#ec3d947f7e)"><path fill="#71859f" d="M 117.511719 390.890625 L 117.511719 339.652344 M 126.722656 390.886719 L 126.722656 339.652344 M 136.027344 390.886719 L 136.027344 339.652344 M 145.335938 390.886719 L 145.335938 339.652344 M 154.640625 390.886719 L 154.640625 339.652344 M 163.847656 390.886719 L 163.847656 339.652344 " fill-opacity="1" fill-rule="nonzero"/></g></g><g clip-path="url(#a353de9813)"><g clip-path="url(#60e83d5cbc)"><path stroke-linecap="butt" transform="matrix(3.099259, 0, 0, 3.102075, -273.893011, 322.715922)" fill="none" stroke-linejoin="miter" d="M 126.289758 21.977129 L 126.289758 5.459707 M 129.261738 21.97587 L 129.261738 5.459707 M 132.263967 21.97587 L 132.263967 5.459707 M 135.267457 21.97587 L 135.267457 5.459707 M 138.269686 21.97587 L 138.269686 5.459707 M 141.240406 21.97587 L 141.240406 5.459707 " stroke="#394d54" stroke-width="1.56" stroke-opacity="1" stroke-miterlimit="4"/></g></g><g clip-path="url(#45ff7a9a9b)"><g clip-path="url(#faf971e753)"><path fill="#71859f" d="M 180.847656 396.046875 L 242.269531 396.046875 L 242.269531 334.570312 L 180.84375 334.570312 Z M 180.847656 396.046875 " fill-opacity="1" fill-rule="nonzero"/></g></g><g clip-path="url(#230a54c6e4)"><g clip-path="url(#45938c3fc3)"><path fill="#71859f" d="M 180.847656 325.082031 L 242.269531 325.082031 L 242.269531 263.605469 L 180.84375 263.605469 Z M 180.847656 325.082031 " fill-opacity="1" fill-rule="nonzero"/></g></g><g clip-path="url(#e9ea5549a0)"><g clip-path="url(#48abd4f5dc)"><path fill="#71859f" d="M 188.378906 339.660156 L 188.378906 390.894531 M 197.589844 339.660156 L 197.589844 390.894531 M 206.894531 339.660156 L 206.894531 390.894531 M 216.203125 339.660156 L 216.203125 390.894531 M 225.507812 339.660156 L 225.507812 390.894531 M 234.714844 339.660156 L 234.714844 390.894531 " fill-opacity="1" fill-rule="nonzero"/></g></g><g clip-path="url(#ada422753a)"><g clip-path="url(#bdeb009d85)"><path stroke-linecap="butt" transform="matrix(3.099259, 0, 0, -3.102075, -203.025368, 407.832839)" fill="none" stroke-linejoin="miter" d="M 126.289611 21.976478 L 126.289611 5.460316 M 129.261591 21.976478 L 129.261591 5.460316 M 132.263821 21.976478 L 132.263821 5.460316 M 135.26731 21.976478 L 135.26731 5.460316 M 138.269539 21.976478 L 138.269539 5.460316 M 141.240259 21.976478 L 141.240259 5.460316 " stroke="#394d54" stroke-width="1.56" stroke-opacity="1" stroke-miterlimit="4"/></g></g><g clip-path="url(#553336cf0a)"><g clip-path="url(#0c5334ed09)"><path fill="#71859f" d="M 188.378906 268.726562 L 188.378906 319.964844 M 197.589844 268.730469 L 197.589844 319.964844 M 206.894531 268.730469 L 206.894531 319.964844 M 216.203125 268.730469 L 216.203125 319.964844 M 225.507812 268.730469 L 225.507812 319.964844 M 234.714844 268.730469 L 234.714844 319.964844 " fill-opacity="1" fill-rule="nonzero"/></g></g><g clip-path="url(#eab312deec)"><g clip-path="url(#8548e9ce5f)"><path stroke-linecap="butt" transform="matrix(3.099259, 0, 0, -3.102075, -203.025368, 336.900764)" fill="none" stroke-linejoin="miter" d="M 126.289611 21.976968 L 126.289611 5.459546 M 129.261591 21.975708 L 129.261591 5.459546 M 132.263821 21.975708 L 132.263821 5.459546 M 135.26731 21.975708 L 135.26731 5.459546 M 138.269539 21.975708 L 138.269539 5.459546 M 141.240259 21.975708 L 141.240259 5.459546 " stroke="#394d54" stroke-width="1.56" stroke-opacity="1" stroke-miterlimit="4"/></g></g><g clip-path="url(#3bcd16c748)"><g clip-path="url(#f7ae608a96)"><path fill="#71859f" d="M 251.714844 263.570312 L 313.136719 263.570312 L 313.136719 325.046875 L 251.710938 325.046875 Z M 251.714844 263.570312 " fill-opacity="1" fill-rule="nonzero"/></g></g><g clip-path="url(#f262aabbb6)"><g clip-path="url(#c607f9befe)"><path fill="#71859f" d="M 251.714844 334.535156 L 313.136719 334.535156 L 313.136719 396.011719 L 251.710938 396.011719 Z M 251.714844 334.535156 " fill-opacity="1" fill-rule="nonzero"/></g></g><g clip-path="url(#2d393bd8ad)"><g clip-path="url(#d996bb7281)"><path fill="#71859f" d="M 259.246094 319.957031 L 259.246094 268.722656 M 268.457031 319.953125 L 268.457031 268.722656 M 277.761719 319.953125 L 277.761719 268.722656 M 287.070312 319.953125 L 287.070312 268.722656 M 296.375 319.953125 L 296.375 268.722656 M 305.582031 319.953125 L 305.582031 268.722656 " fill-opacity="1" fill-rule="nonzero"/></g></g><g clip-path="url(#56f02d7db4)"><g clip-path="url(#61c30dd161)"><path stroke-linecap="butt" transform="matrix(3.099259, 0, 0, 3.102075, -132.157694, 251.783856)" fill="none" stroke-linejoin="miter" d="M 126.289454 21.976637 L 126.289454 5.460474 M 129.261434 21.975378 L 129.261434 5.460474 M 132.263664 21.975378 L 132.263664 5.460474 M 135.267153 21.975378 L 135.267153 5.460474 M 138.269382 21.975378 L 138.269382 5.460474 M 141.240102 21.975378 L 141.240102 5.460474 " stroke="#394d54" stroke-width="1.56" stroke-opacity="1" stroke-miterlimit="4"/></g></g><g clip-path="url(#4c7112aa04)"><g clip-path="url(#5052c86dc5)"><path fill="#71859f" d="M 259.246094 390.890625 L 259.246094 339.652344 M 268.457031 390.886719 L 268.457031 339.652344 M 277.761719 390.886719 L 277.761719 339.652344 M 287.070312 390.886719 L 287.070312 339.652344 M 296.375 390.886719 L 296.375 339.652344 M 305.582031 390.886719 L 305.582031 339.652344 " fill-opacity="1" fill-rule="nonzero"/></g></g><g clip-path="url(#419d4ee236)"><g clip-path="url(#99db87747f)"><path stroke-linecap="butt" transform="matrix(3.099259, 0, 0, 3.102075, -132.157694, 322.715922)" fill="none" stroke-linejoin="miter" d="M 126.289454 21.977129 L 126.289454 5.459707 M 129.261434 21.97587 L 129.261434 5.459707 M 132.263664 21.97587 L 132.263664 5.459707 M 135.267153 21.97587 L 135.267153 5.459707 M 138.269382 21.97587 L 138.269382 5.459707 M 141.240102 21.97587 L 141.240102 5.459707 " stroke="#394d54" stroke-width="1.56" stroke-opacity="1" stroke-miterlimit="4"/></g></g><g clip-path="url(#f6d9c056fb)"><g clip-path="url(#48f26d8946)"><path fill="#71859f" d="M 322.585938 396.046875 L 384.003906 396.046875 L 384.003906 334.570312 L 322.578125 334.570312 Z M 322.585938 396.046875 " fill-opacity="1" fill-rule="nonzero"/></g></g><g clip-path="url(#9ff1117e62)"><g clip-path="url(#6672fad78c)"><path fill="#71859f" d="M 322.585938 325.082031 L 384.003906 325.082031 L 384.003906 263.605469 L 322.578125 263.605469 Z M 322.585938 325.082031 " fill-opacity="1" fill-rule="nonzero"/></g></g><g clip-path="url(#21e3fa4296)"><g clip-path="url(#e497cbf221)"><path fill="#71859f" d="M 330.117188 339.660156 L 330.117188 390.894531 M 339.328125 339.660156 L 339.328125 390.894531 M 348.628906 339.660156 L 348.628906 390.894531 M 357.9375 339.660156 L 357.9375 390.894531 M 367.246094 339.660156 L 367.246094 390.894531 M 376.449219 339.660156 L 376.449219 390.894531 " fill-opacity="1" fill-rule="nonzero"/></g></g><g clip-path="url(#16194be553)"><g clip-path="url(#fc1bf2c4a5)"><path stroke-linecap="butt" transform="matrix(3.099259, 0, 0, -3.102075, -61.290022, 407.832839)" fill="none" stroke-linejoin="miter" d="M 126.290558 21.976478 L 126.290558 5.460316 M 129.262538 21.976478 L 129.262538 5.460316 M 132.263507 21.976478 L 132.263507 5.460316 M 135.266997 21.976478 L 135.266997 5.460316 M 138.270487 21.976478 L 138.270487 5.460316 M 141.239946 21.976478 L 141.239946 5.460316 " stroke="#394d54" stroke-width="1.56" stroke-opacity="1" stroke-miterlimit="4"/></g></g><g clip-path="url(#b70375af35)"><g clip-path="url(#c6a89b2dcc)"><path fill="#71859f" d="M 330.117188 268.726562 L 330.117188 319.964844 M 339.328125 268.730469 L 339.328125 319.964844 M 348.628906 268.730469 L 348.628906 319.964844 M 357.9375 268.730469 L 357.9375 319.964844 M 367.246094 268.730469 L 367.246094 319.964844 M 376.449219 268.730469 L 376.449219 319.964844 " fill-opacity="1" fill-rule="nonzero"/></g></g><g clip-path="url(#e24f654d62)"><g clip-path="url(#fb735e25da)"><path stroke-linecap="butt" transform="matrix(3.099259, 0, 0, -3.102075, -61.290022, 336.900764)" fill="none" stroke-linejoin="miter" d="M 126.290558 21.976968 L 126.290558 5.459546 M 129.262538 21.975708 L 129.262538 5.459546 M 132.263507 21.975708 L 132.263507 5.459546 M 135.266997 21.975708 L 135.266997 5.459546 M 138.270487 21.975708 L 138.270487 5.459546 M 141.239946 21.975708 L 141.239946 5.459546 " stroke="#394d54" stroke-width="1.56" stroke-opacity="1" stroke-miterlimit="4"/></g></g><g clip-path="url(#f8bba396b5)"><g clip-path="url(#f2afa72eed)"><path fill="#71859f" d="M 393.453125 263.570312 L 454.875 263.570312 L 454.875 325.046875 L 393.445312 325.046875 Z M 393.453125 263.570312 " fill-opacity="1" fill-rule="nonzero"/></g></g><g clip-path="url(#d670091dee)"><g clip-path="url(#af5f57c034)"><path fill="#71859f" d="M 393.453125 334.535156 L 454.875 334.535156 L 454.875 396.011719 L 393.445312 396.011719 Z M 393.453125 334.535156 " fill-opacity="1" fill-rule="nonzero"/></g></g><g clip-path="url(#ecdc5de01a)"><g clip-path="url(#733e3f7257)"><path fill="#71859f" d="M 400.984375 319.957031 L 400.984375 268.722656 M 410.195312 319.953125 L 410.195312 268.722656 M 419.5 319.953125 L 419.5 268.722656 M 428.804688 319.953125 L 428.804688 268.722656 M 438.113281 319.953125 L 438.113281 268.722656 M 447.316406 319.953125 L 447.316406 268.722656 " fill-opacity="1" fill-rule="nonzero"/></g></g><g clip-path="url(#b56bc47038)"><g clip-path="url(#1f302045e2)"><path stroke-linecap="butt" transform="matrix(3.099259, 0, 0, 3.102075, 9.57764, 251.783856)" fill="none" stroke-linejoin="miter" d="M 126.290405 21.976637 L 126.290405 5.460474 M 129.262385 21.975378 L 129.262385 5.460474 M 132.264614 21.975378 L 132.264614 5.460474 M 135.266844 21.975378 L 135.266844 5.460474 M 138.270333 21.975378 L 138.270333 5.460474 M 141.239793 21.975378 L 141.239793 5.460474 " stroke="#394d54" stroke-width="1.56" stroke-opacity="1" stroke-miterlimit="4"/></g></g><g clip-path="url(#7ceb145564)"><g clip-path="url(#9f887e676d)"><path fill="#71859f" d="M 400.984375 390.890625 L 400.984375 339.652344 M 410.195312 390.886719 L 410.195312 339.652344 M 419.5 390.886719 L 419.5 339.652344 M 428.804688 390.886719 L 428.804688 339.652344 M 438.113281 390.886719 L 438.113281 339.652344 M 447.316406 390.886719 L 447.316406 339.652344 " fill-opacity="1" fill-rule="nonzero"/></g></g><g clip-path="url(#3f1cd80c42)"><g clip-path="url(#a39b6cfb00)"><path stroke-linecap="butt" transform="matrix(3.099259, 0, 0, 3.102075, 9.57764, 322.715922)" fill="none" stroke-linejoin="miter" d="M 126.290405 21.977129 L 126.290405 5.459707 M 129.262385 21.97587 L 129.262385 5.459707 M 132.264614 21.97587 L 132.264614 5.459707 M 135.266844 21.97587 L 135.266844 5.459707 M 138.270333 21.97587 L 138.270333 5.459707 M 141.239793 21.97587 L 141.239793 5.459707 " stroke="#394d54" stroke-width="1.56" stroke-opacity="1" stroke-miterlimit="4"/></g></g><g clip-path="url(#5824acd626)"><g clip-path="url(#515094ac86)"><path fill="#71859f" d="M 464.320312 396.046875 L 525.742188 396.046875 L 525.742188 334.570312 L 464.3125 334.570312 Z M 464.320312 396.046875 " fill-opacity="1" fill-rule="nonzero"/></g></g><g clip-path="url(#bc4133b5e6)"><g clip-path="url(#da6da3472e)"><path fill="#71859f" d="M 464.320312 325.082031 L 525.742188 325.082031 L 525.742188 263.605469 L 464.3125 263.605469 Z M 464.320312 325.082031 " fill-opacity="1" fill-rule="nonzero"/></g></g><g clip-path="url(#37258f1e07)"><g clip-path="url(#966987520f)"><path fill="#71859f" d="M 471.851562 339.660156 L 471.851562 390.894531 M 481.0625 339.660156 L 481.0625 390.894531 M 490.367188 339.660156 L 490.367188 390.894531 M 499.671875 339.660156 L 499.671875 390.894531 M 508.980469 339.660156 L 508.980469 390.894531 M 518.183594 339.660156 L 518.183594 390.894531 " fill-opacity="1" fill-rule="nonzero"/></g></g><g clip-path="url(#f2bf30c4d6)"><g clip-path="url(#3577a0329c)"><path stroke-linecap="butt" transform="matrix(3.099259, 0, 0, -3.102075, 80.445307, 407.832839)" fill="none" stroke-linejoin="miter" d="M 126.290251 21.976478 L 126.290251 5.460316 M 129.262231 21.976478 L 129.262231 5.460316 M 132.26446 21.976478 L 132.26446 5.460316 M 135.266689 21.976478 L 135.266689 5.460316 M 138.270179 21.976478 L 138.270179 5.460316 M 141.239638 21.976478 L 141.239638 5.460316 " stroke="#394d54" stroke-width="1.56" stroke-opacity="1" stroke-miterlimit="4"/></g></g><g clip-path="url(#e546211433)"><g clip-path="url(#b020e2e270)"><path fill="#71859f" d="M 471.851562 268.726562 L 471.851562 319.964844 M 481.0625 268.730469 L 481.0625 319.964844 M 490.367188 268.730469 L 490.367188 319.964844 M 499.671875 268.730469 L 499.671875 319.964844 M 508.980469 268.730469 L 508.980469 319.964844 M 518.183594 268.730469 L 518.183594 319.964844 " fill-opacity="1" fill-rule="nonzero"/></g></g><g clip-path="url(#c51d8d0b06)"><g clip-path="url(#e53b9b7402)"><path stroke-linecap="butt" transform="matrix(3.099259, 0, 0, -3.102075, 80.445307, 336.900764)" fill="none" stroke-linejoin="miter" d="M 126.290251 21.976968 L 126.290251 5.459546 M 129.262231 21.975708 L 129.262231 5.459546 M 132.26446 21.975708 L 132.26446 5.459546 M 135.266689 21.975708 L 135.266689 5.459546 M 138.270179 21.975708 L 138.270179 5.459546 M 141.239638 21.975708 L 141.239638 5.459546 " stroke="#394d54" stroke-width="1.56" stroke-opacity="1" stroke-miterlimit="4"/></g></g><g clip-path="url(#1bf15985d0)"><g clip-path="url(#e053fd4bd5)"><path fill="#71859f" d="M 696.28125 349.542969 C 701.03125 312.582031 673.394531 283.546875 656.257812 269.761719 C 636.503906 292.621094 633.4375 352.519531 664.421875 377.738281 C 647.128906 393.109375 610.691406 407.046875 573.378906 407.046875 L 114.9375 407.046875 C 111.3125 446.03125 114.9375 633.753906 114.9375 633.753906 L 787.476562 633.753906 L 784.417969 350.152344 C 755.285156 333.324219 717.832031 338.691406 696.265625 349.539062 " fill-opacity="1" fill-rule="nonzero"/></g></g><g clip-path="url(#f26a53a4aa)"><g clip-path="url(#10182aad51)"><path fill="#000000" d="M 114.953125 456.9375 L 114.953125 633.753906 L 787.492188 633.753906 L 787.492188 456.9375 " fill-opacity="0.1686" fill-rule="nonzero"/></g></g><g clip-path="url(#9165abd3a8)"><g clip-path="url(#414e720c81)"><path fill="#d4edf1" d="M 354.339844 617.933594 C 312.375 598.003906 289.339844 570.90625 276.527344 541.332031 L 149.042969 546.882812 L 214.128906 633.742188 L 354.328125 617.921875 " fill-opacity="1" fill-rule="nonzero"/></g></g><g clip-path="url(#9406ed3d21)"><g clip-path="url(#5f424a3e98)"><path fill="#000000" d="M 699.164062 348.171875 L 699.164062 348.265625 C 634.511719 431.710938 541.773438 504.546875 442.214844 542.828125 C 353.40625 576.972656 275.976562 577.136719 222.554688 549.714844 C 216.804688 546.460938 211.164062 542.851562 205.507812 539.4375 C 166.34375 512.042969 144.285156 466.726562 146.140625 407.019531 L 114.960938 407.019531 L 114.960938 633.753906 L 787.5 633.753906 L 787.5 335.957031 L 710.019531 335.957031 Z M 699.164062 348.171875 " fill-opacity="0.0863" fill-rule="nonzero"/></g></g><path stroke-linecap="round" transform="matrix(16.783599, 0, 0, 16.798845, -41.956396, 382.404375)" fill="none" stroke-linejoin="miter" d="M 11.496026 9.612937 C 14.112047 9.755944 16.90309 9.782917 19.338038 9.019054 " stroke="#394d54" stroke-width="0.628" stroke-opacity="1" stroke-miterlimit="4"/><path fill="#d4edf1" d="M 326.226562 512.644531 C 326.226562 513.199219 326.195312 513.753906 326.140625 514.308594 C 326.085938 514.859375 326.003906 515.40625 325.898438 515.953125 C 325.789062 516.496094 325.652344 517.035156 325.492188 517.5625 C 325.332031 518.09375 325.144531 518.617188 324.933594 519.128906 C 324.71875 519.640625 324.480469 520.144531 324.222656 520.632812 C 323.960938 521.121094 323.675781 521.597656 323.367188 522.058594 C 323.058594 522.519531 322.726562 522.964844 322.375 523.394531 C 322.023438 523.824219 321.652344 524.234375 321.261719 524.625 C 320.867188 525.019531 320.457031 525.390625 320.03125 525.742188 C 319.601562 526.09375 319.15625 526.425781 318.695312 526.734375 C 318.234375 527.042969 317.757812 527.328125 317.269531 527.589844 C 316.78125 527.851562 316.28125 528.089844 315.769531 528.300781 C 315.257812 528.515625 314.734375 528.699219 314.203125 528.863281 C 313.675781 529.023438 313.136719 529.160156 312.59375 529.265625 C 312.050781 529.375 311.5 529.457031 310.949219 529.511719 C 310.398438 529.566406 309.84375 529.59375 309.289062 529.597656 C 308.734375 529.597656 308.183594 529.570312 307.628906 529.515625 C 307.078125 529.460938 306.53125 529.378906 305.984375 529.269531 C 305.441406 529.160156 304.902344 529.027344 304.371094 528.867188 C 303.84375 528.707031 303.320312 528.519531 302.808594 528.304688 C 302.296875 528.09375 301.792969 527.855469 301.304688 527.59375 C 300.816406 527.332031 300.339844 527.046875 299.878906 526.738281 C 299.417969 526.429688 298.972656 526.101562 298.542969 525.75 C 298.113281 525.398438 297.703125 525.023438 297.308594 524.632812 C 296.917969 524.238281 296.546875 523.828125 296.191406 523.398438 C 295.839844 522.972656 295.511719 522.527344 295.203125 522.0625 C 294.894531 521.601562 294.609375 521.125 294.347656 520.636719 C 294.085938 520.148438 293.847656 519.648438 293.632812 519.132812 C 293.421875 518.621094 293.234375 518.097656 293.074219 517.566406 C 292.910156 517.035156 292.777344 516.5 292.667969 515.953125 C 292.558594 515.410156 292.476562 514.859375 292.421875 514.308594 C 292.367188 513.753906 292.339844 513.199219 292.339844 512.644531 C 292.339844 512.089844 292.367188 511.535156 292.421875 510.984375 C 292.476562 510.429688 292.558594 509.878906 292.664062 509.335938 C 292.773438 508.789062 292.90625 508.253906 293.070312 507.71875 C 293.230469 507.1875 293.417969 506.667969 293.628906 506.152344 C 293.84375 505.640625 294.078125 505.136719 294.339844 504.648438 C 294.601562 504.15625 294.886719 503.679688 295.195312 503.21875 C 295.503906 502.757812 295.835938 502.3125 296.1875 501.882812 C 296.539062 501.453125 296.910156 501.042969 297.304688 500.648438 C 297.695312 500.253906 298.109375 499.882812 298.535156 499.53125 C 298.964844 499.179688 299.410156 498.847656 299.871094 498.539062 C 300.335938 498.230469 300.808594 497.945312 301.300781 497.683594 C 301.789062 497.421875 302.289062 497.183594 302.804688 496.96875 C 303.316406 496.757812 303.839844 496.570312 304.371094 496.410156 C 304.902344 496.25 305.4375 496.113281 305.984375 496.003906 C 306.527344 495.898438 307.078125 495.816406 307.628906 495.761719 C 308.183594 495.707031 308.734375 495.679688 309.289062 495.679688 C 309.84375 495.679688 310.398438 495.707031 310.953125 495.761719 C 311.503906 495.816406 312.050781 495.898438 312.59375 496.007812 C 313.140625 496.117188 313.675781 496.25 314.207031 496.414062 C 314.738281 496.574219 315.261719 496.761719 315.773438 496.976562 C 316.285156 497.1875 316.785156 497.425781 317.273438 497.6875 C 317.765625 497.949219 318.238281 498.234375 318.699219 498.542969 C 319.160156 498.851562 319.605469 499.183594 320.035156 499.535156 C 320.464844 499.890625 320.875 500.261719 321.265625 500.65625 C 321.660156 501.046875 322.03125 501.457031 322.382812 501.886719 C 322.734375 502.316406 323.0625 502.761719 323.371094 503.226562 C 323.679688 503.6875 323.964844 504.164062 324.226562 504.652344 C 324.488281 505.140625 324.722656 505.644531 324.9375 506.15625 C 325.148438 506.667969 325.335938 507.191406 325.496094 507.722656 C 325.65625 508.253906 325.792969 508.792969 325.898438 509.335938 C 326.007812 509.882812 326.089844 510.429688 326.144531 510.984375 C 326.199219 511.535156 326.226562 512.089844 326.226562 512.644531 Z M 326.226562 512.644531 " fill-opacity="1" fill-rule="nonzero"/><path fill="#313f52" d="M 313.855469 501.339844 C 312.378906 502.179688 311.371094 503.792969 311.371094 505.640625 C 311.371094 508.378906 313.585938 510.597656 316.324219 510.597656 C 318.203125 510.597656 319.679688 509.554688 320.6875 508.007812 C 321.300781 509.5 321.609375 511.050781 321.609375 512.664062 C 321.609375 519.382812 316.171875 524.808594 309.476562 524.808594 C 302.777344 524.808594 297.339844 519.367188 297.339844 512.664062 C 297.339844 505.960938 302.777344 500.515625 309.476562 500.515625 C 310.992188 500.515625 312.457031 500.789062 313.871094 501.339844 Z M 9.570312 460.519531 L 797.792969 460.519531 C 780.625 456.152344 743.5 450.441406 749.625 427.761719 C 718.40625 463.914062 643.148438 452.960938 624.167969 435.289062 C 603.019531 465.996094 479.878906 454.320312 471.304688 430.246094 C 444.785156 461.390625 362.628906 461.390625 336.109375 430.246094 C 327.519531 454.167969 204.394531 465.859375 183.378906 435.289062 C 164.214844 452.960938 88.957031 463.929688 57.738281 427.761719 C 63.863281 450.273438 26.722656 456.320312 9.570312 460.519531 " fill-opacity="1" fill-rule="nonzero"/></svg>
