<svg xmlns="http://www.w3.org/2000/svg" xmlns:xlink="http://www.w3.org/1999/xlink" width="1080" zoomAndPan="magnify" viewBox="0 0 810 809.999993" height="1080" preserveAspectRatio="xMidYMid meet" version="1.0"><defs><clipPath id="25d2f7e41b"><path d="M 92.25 29.886719 L 717.75 29.886719 L 717.75 779.886719 L 92.25 779.886719 Z M 92.25 29.886719 " clip-rule="nonzero"/></clipPath></defs><g clip-path="url(#25d2f7e41b)"><path fill="#313f52" d="M 186.183594 29.886719 C 134.777344 29.886719 92.40625 72.246094 92.40625 123.636719 L 92.40625 686.136719 C 92.40625 737.527344 134.777344 779.886719 186.183594 779.886719 L 623.8125 779.886719 C 675.222656 779.886719 717.59375 737.527344 717.59375 686.136719 L 717.59375 123.636719 C 717.59375 72.246094 675.222656 29.886719 623.8125 29.886719 Z M 186.183594 92.386719 L 623.8125 92.386719 C 641.398438 92.386719 655.074219 106.058594 655.074219 123.636719 L 655.074219 686.136719 C 655.074219 703.714844 641.398438 717.386719 623.8125 717.386719 L 186.183594 717.386719 C 168.601562 717.386719 154.925781 703.714844 154.925781 686.136719 L 154.925781 123.636719 C 154.925781 106.058594 168.601562 92.386719 186.183594 92.386719 Z M 311.222656 154.886719 L 248.703125 155.863281 C 248.703125 155.863281 248.214844 437.359375 248.703125 436.136719 C 487.789062 323.832031 498.777344 399.027344 498.777344 399.027344 L 498.777344 654.886719 L 561.296875 654.886719 L 561.296875 400.003906 C 561.296875 242.898438 311.222656 342.386719 311.222656 342.386719 Z M 507.570312 154.886719 C 507.570312 154.886719 465.808594 212.503906 436.257812 248.636719 L 518.3125 248.636719 C 562.882812 191.019531 592.554688 154.886719 592.554688 154.886719 Z M 248.703125 498.636719 L 248.703125 653.910156 L 342.480469 576.761719 Z M 248.703125 498.636719 " fill-opacity="1" fill-rule="nonzero"/></g></svg>