<svg xmlns="http://www.w3.org/2000/svg" xmlns:xlink="http://www.w3.org/1999/xlink" width="5500" zoomAndPan="magnify" viewBox="0 0 224.88 225" height="5500" preserveAspectRatio="xMidYMid meet" version="1.0">

<g clip-path="url(#fd69cb986a)">

<path fill="#000000" d="M 84.511719 150.503906 C 119.6875 156.277344 148.632812 147.902344 139.507812 143.738281 C 139.507812 143.738281 142 145.816406 136.765625 147.421875 C 126.808594 150.476562 95.320312 151.394531 86.578125 147.542969 C 83.433594 146.15625 89.332031 144.234375 91.179688 143.835938 C 93.117188 143.410156 94.222656 143.488281 94.222656 143.488281 C 90.71875 140.996094 71.609375 148.382812 84.511719 150.503906 Z M 84.511719 150.503906 " fill-opacity="1" fill-rule="nonzero"/><path fill="#000000" d="M 145.085938 148.28125 C 145.085938 148.28125 143.972656 151.160156 131.96875 153.449219 C 118.425781 156.03125 101.714844 155.730469 91.808594 154.074219 C 91.808594 154.070312 93.839844 155.773438 104.269531 156.449219 C 120.136719 157.480469 144.507812 155.882812 145.085938 148.28125 Z M 145.085938 148.28125 " fill-opacity="1" fill-rule="nonzero"/><path fill="#000000" d="M 124.453125 129.035156 C 114.253906 131.027344 108.367188 130.957031 100.90625 130.183594 C 95.140625 129.574219 98.914062 126.746094 98.914062 126.746094 C 83.988281 131.757812 107.222656 137.449219 128.074219 131.273438 C 125.863281 130.484375 124.453125 129.035156 124.453125 129.035156 Z M 124.453125 129.035156 " fill-opacity="1" fill-rule="nonzero"/><path fill="#000000" d="M 131.371094 132.882812 C 131.296875 133.09375 131.042969 133.320312 131.042969 133.324219 C 153.125 127.445312 145.007812 112.609375 134.449219 116.367188 C 133.519531 116.699219 133.03125 117.46875 133.03125 117.46875 C 133.03125 117.46875 133.621094 117.230469 134.921875 116.957031 C 140.265625 115.828125 147.90625 124.1875 131.371094 132.882812 Z M 131.371094 132.882812 " fill-opacity="1" fill-rule="nonzero"/><g clip-path="url(#67b3aaeb53)"><path fill="#000000" d="M 102.347656 95.875 C 98.242188 102.121094 104.371094 108.832031 112.71875 116.460938 C 109.460938 109.011719 98.417969 102.488281 112.722656 91.054688 C 130.5625 76.792969 121.40625 67.523438 121.40625 67.523438 C 125.105469 82.25 108.382812 86.695312 102.347656 95.875 Z M 102.347656 95.875 " fill-opacity="1" fill-rule="nonzero"/></g><path fill="#000000" d="M 132.445312 85.746094 C 132.445312 85.742188 102.277344 93.367188 116.6875 110.175781 C 120.941406 115.132812 115.570312 119.59375 115.570312 119.59375 C 115.570312 119.59375 126.363281 113.949219 121.40625 106.886719 C 116.773438 100.300781 113.222656 97.03125 132.445312 85.746094 Z M 132.445312 85.746094 " fill-opacity="1" fill-rule="nonzero"/><path fill="#000000" d="M 101.027344 136.511719 C 87.480469 140.34375 109.269531 148.265625 126.523438 140.78125 C 123.699219 139.667969 121.671875 138.382812 121.671875 138.382812 C 113.980469 139.859375 110.410156 139.976562 103.425781 139.164062 C 97.660156 138.496094 101.027344 136.511719 101.027344 136.511719 Z M 101.027344 136.511719 " fill-opacity="1" fill-rule="nonzero"/><path fill="#000000" d="M 127.414062 122.054688 C 129.109375 120.882812 131.445312 119.871094 131.445312 119.871094 C 131.445312 119.871094 124.792969 121.078125 118.164062 121.644531 C 110.050781 122.332031 101.34375 122.464844 96.976562 121.875 C 86.628906 120.476562 102.644531 116.625 102.644531 116.625 C 102.644531 116.625 96.425781 116.203125 88.78125 119.941406 C 79.730469 124.367188 111.15625 126.382812 127.414062 122.054688 Z M 127.414062 122.054688 " fill-opacity="1" fill-rule="nonzero"/></g></svg>
