<svg xmlns="http://www.w3.org/2000/svg" xmlns:xlink="http://www.w3.org/1999/xlink" width="1080" zoomAndPan="magnify" viewBox="0 0 810 809.999993" height="1080" preserveAspectRatio="xMidYMid meet" version="1.0">
<defs><clipPath id="40f4717329"><path d="M 27.066406 27.066406 L 783.066406 27.066406 L 783.066406 783.066406 L 27.066406 783.066406 Z M 27.066406 27.066406 " clip-rule="nonzero"/></clipPath></defs><g clip-path="url(#40f4717329)">
<path fill="#313f52" d="M 27.066406 27.066406 L 783.066406 27.066406 L 783.066406 783.066406 L 27.066406 783.066406 Z M 27.066406 27.066406 " fill-opacity="1" fill-rule="nonzero"/></g><path fill="#ffffff" d="M 225.847656 658.828125 L 283.699219 623.832031 C 294.859375 643.617188 305.011719 660.363281 329.375 660.363281 C 352.707031 660.363281 367.441406 651.207031 367.441406 615.710938 L 367.441406 374.144531 L 438.464844 374.144531 L 438.464844 616.714844 C 438.464844 690.277344 395.347656 723.796875 332.417969 723.796875 C 275.578125 723.796875 242.589844 694.351562 225.84375 658.828125 " fill-opacity="1" fill-rule="nonzero"/><path fill="#ffffff" d="M 477.0625 651.207031 L 534.914062 617.71875 C 550.152344 642.585938 569.9375 660.863281 604.933594 660.863281 C 634.375 660.863281 653.15625 646.160156 653.15625 625.839844 C 653.15625 601.476562 633.875 592.855469 601.390625 578.648438 L 583.640625 571.03125 C 532.375 549.207031 498.382812 521.832031 498.382812 463.949219 C 498.382812 410.675781 538.960938 370.070312 602.421875 370.070312 C 647.574219 370.070312 680.058594 385.8125 703.390625 426.917969 L 648.078125 462.445312 C 635.910156 440.621094 622.710938 431.996094 602.421875 431.996094 C 581.601562 431.996094 568.402344 445.199219 568.402344 462.445312 C 568.402344 483.765625 581.601562 492.390625 612.050781 505.589844 L 629.796875 513.179688 C 690.1875 539.078125 724.210938 565.449219 724.210938 624.835938 C 724.210938 688.773438 673.976562 723.796875 606.46875 723.796875 C 540.496094 723.796875 497.882812 692.316406 477.0625 651.207031 " fill-opacity="1" fill-rule="nonzero"/></svg>