<svg xmlns="http://www.w3.org/2000/svg" xmlns:xlink="http://www.w3.org/1999/xlink" width="1080" zoomAndPan="magnify" viewBox="0 0 810 809.999993" height="1080" preserveAspectRatio="xMidYMid meet" version="1.0"><defs><clipPath id="6aa4e1c42d"><path d="M 21 23 L 591 23 L 591 594 L 21 594 Z M 21 23 " clip-rule="nonzero"/></clipPath><clipPath id="6f6c3a8ff1"><path d="M 402.257812 22.914062 C 207.367188 22.914062 219.535156 107.476562 219.535156 107.476562 L 219.75 195.085938 L 405.714844 195.085938 L 405.714844 221.386719 L 145.886719 221.386719 C 145.886719 221.386719 21.183594 207.234375 21.183594 403.980469 C 21.179688 600.742188 130.027344 593.765625 130.027344 593.765625 L 194.984375 593.765625 L 194.984375 502.453125 C 194.984375 502.453125 191.484375 393.546875 302.09375 393.546875 L 486.546875 393.546875 C 486.546875 393.546875 590.160156 395.230469 590.160156 293.339844 L 590.160156 124.871094 C 590.160156 124.871094 605.910156 22.914062 402.257812 22.914062 L 402.257812 22.917969 Z M 299.703125 81.828125 C 318.203125 81.828125 333.152344 96.789062 333.152344 115.300781 C 333.152344 133.816406 318.203125 148.78125 299.703125 148.78125 C 281.199219 148.78125 266.242188 133.816406 266.242188 115.300781 C 266.242188 96.789062 281.199219 81.828125 299.703125 81.828125 Z M 299.703125 81.828125 " clip-rule="nonzero"/></clipPath><clipPath id="dd7982f543"><path d="M 219 216 L 788.902344 216 L 788.902344 787.25 L 219 787.25 Z M 219 216 " clip-rule="nonzero"/></clipPath><clipPath id="98f503afcc"><path d="M 407.789062 787.039062 C 602.664062 787.039062 590.488281 702.460938 590.488281 702.460938 L 590.28125 614.847656 L 404.304688 614.847656 L 404.304688 588.5625 L 664.136719 588.5625 C 664.136719 588.5625 788.851562 602.699219 788.851562 405.964844 C 788.851562 209.207031 680.007812 216.183594 680.007812 216.183594 L 615.046875 216.183594 L 615.046875 307.484375 C 615.046875 307.484375 618.535156 416.402344 507.945312 416.402344 L 323.472656 416.402344 C 323.472656 416.402344 219.855469 414.71875 219.855469 516.617188 L 219.855469 685.078125 C 219.855469 685.078125 204.121094 787.039062 407.789062 787.039062 Z M 510.320312 728.117188 C 491.835938 728.117188 476.867188 713.140625 476.867188 694.644531 C 476.867188 676.117188 491.835938 661.167969 510.320312 661.167969 C 528.839844 661.167969 543.777344 676.117188 543.777344 694.644531 C 543.777344 713.140625 528.839844 728.117188 510.320312 728.117188 Z M 510.320312 728.117188 " clip-rule="nonzero"/></clipPath></defs><g clip-path="url(#6aa4e1c42d)"><g clip-path="url(#6f6c3a8ff1)"><path fill="#313f52" d="M 21.179688 23 L 21.179688 600.742188 L 605.910156 600.742188 L 605.910156 23 Z M 21.179688 23 " fill-opacity="1" fill-rule="nonzero"/></g></g><g clip-path="url(#dd7982f543)"><g clip-path="url(#98f503afcc)"><path fill="#ffffff" d="M 204.121094 209.207031 L 204.121094 787.039062 L 788.851562 787.039062 L 788.851562 209.207031 Z M 204.121094 209.207031 " fill-opacity="1" fill-rule="nonzero"/></g></g></svg>