<svg xmlns="http://www.w3.org/2000/svg" xmlns:xlink="http://www.w3.org/1999/xlink" width="1080" zoomAndPan="magnify" viewBox="0 0 810 809.999993" height="1080" preserveAspectRatio="xMidYMid meet" version="1.0">
<defs><clipPath id="dd64b56ea5"><path d="M 21 63 L 789.800781 63 L 789.800781 747 L 21 747 Z M 21 63 " clip-rule="nonzero"/></clipPath></defs><g clip-path="url(#dd64b56ea5)"><path fill="#313f52" d="M 652.464844 284.703125 C 644.515625 281.960938 636.269531 279.367188 627.75 276.917969 C 629.160156 271.214844 630.449219 265.59375 631.589844 260.0625 C 650.277344 169.277344 638.066406 96.140625 596.28125 72.058594 C 556.207031 48.96875 490.691406 73.046875 424.519531 130.601562 C 418.160156 136.132812 411.769531 141.992188 405.410156 148.132812 C 401.152344 144.070312 396.921875 140.144531 392.691406 136.390625 C 323.339844 74.851562 253.828125 48.914062 212.089844 73.0625 C 172.0625 96.21875 160.210938 164.976562 177.058594 251.015625 C 178.683594 259.328125 180.585938 267.8125 182.734375 276.441406 C 172.898438 279.234375 163.402344 282.207031 154.316406 285.375 C 73.011719 313.703125 21.089844 358.105469 21.089844 404.164062 C 21.089844 451.714844 76.828125 499.445312 161.511719 528.375 C 168.191406 530.65625 175.128906 532.8125 182.273438 534.851562 C 179.953125 544.175781 177.9375 553.320312 176.242188 562.253906 C 160.183594 646.800781 172.722656 713.929688 212.640625 736.925781 C 253.871094 760.699219 323.070312 736.265625 390.441406 677.410156 C 395.78125 672.765625 401.121094 667.816406 406.460938 662.660156 C 413.421875 669.316406 420.351562 675.644531 427.21875 681.578125 C 492.492188 737.703125 556.957031 760.371094 596.820312 737.3125 C 638.007812 713.480469 651.417969 641.34375 634.019531 553.621094 C 632.699219 546.90625 631.136719 540.070312 629.429688 533.113281 C 634.289062 531.675781 639.058594 530.175781 643.707031 528.644531 C 731.75 499.472656 789.011719 452.375 789.011719 404.164062 C 789.011719 357.9375 735.40625 313.238281 652.464844 284.703125 Z M 633.386719 497.527344 C 629.1875 498.90625 624.871094 500.253906 620.488281 501.542969 C 610.769531 470.8125 597.660156 438.101562 581.582031 404.316406 C 596.910156 371.335938 609.511719 339.058594 618.960938 308.507812 C 626.820312 310.78125 634.4375 313.175781 641.789062 315.703125 C 712.851562 340.15625 756.195312 376.3125 756.195312 404.164062 C 756.195312 433.816406 709.402344 472.339844 633.386719 497.527344 Z M 601.832031 559.976562 C 609.539062 598.773438 610.621094 633.847656 605.519531 661.28125 C 600.960938 685.925781 591.753906 702.355469 580.382812 708.921875 C 556.175781 722.921875 504.429688 704.726562 448.636719 656.726562 C 442.21875 651.207031 435.769531 645.332031 429.320312 639.125 C 450.945312 615.472656 472.574219 587.976562 493.691406 557.429688 C 530.796875 554.160156 565.863281 548.761719 597.691406 541.417969 C 599.25 547.742188 600.632812 553.921875 601.832031 559.976562 Z M 282.902344 706.492188 C 259.257812 714.859375 240.425781 715.097656 229.042969 708.53125 C 204.820312 694.5625 194.75 640.65625 208.488281 568.371094 C 210.0625 560.097656 211.933594 551.582031 214.09375 542.886719 C 245.546875 549.84375 280.367188 554.847656 317.578125 557.847656 C 338.828125 587.738281 361.085938 615.203125 383.496094 639.246094 C 378.605469 643.984375 373.714844 648.480469 368.855469 652.707031 C 339.070312 678.761719 309.214844 697.230469 282.902344 706.492188 Z M 172.132812 497.347656 C 134.6875 484.542969 103.765625 467.933594 82.570312 449.765625 C 63.519531 433.484375 53.90625 417.296875 53.90625 404.164062 C 53.90625 376.222656 95.59375 340.5625 165.125 316.335938 C 173.5625 313.394531 182.390625 310.625 191.554688 308.019531 C 201.167969 339.261719 213.773438 371.933594 228.984375 404.945312 C 213.574219 438.464844 200.789062 471.652344 191.085938 503.28125 C 184.550781 501.394531 178.222656 499.414062 172.132812 497.347656 Z M 209.265625 244.71875 C 194.832031 171.003906 204.417969 115.394531 228.535156 101.441406 C 254.226562 86.574219 311.035156 107.769531 370.898438 160.90625 C 374.734375 164.304688 378.574219 167.855469 382.445312 171.535156 C 360.128906 195.480469 338.078125 222.742188 317.015625 252.449219 C 280.898438 255.792969 246.328125 261.167969 214.542969 268.367188 C 212.546875 260.332031 210.777344 252.4375 209.265625 244.71875 Z M 540.492188 326.46875 C 532.902344 313.351562 525.101562 300.542969 517.152344 288.085938 C 541.660156 291.179688 565.117188 295.292969 587.164062 300.320312 C 580.566406 321.519531 572.316406 343.683594 562.597656 366.417969 C 555.640625 353.191406 548.261719 339.863281 540.492188 326.46875 Z M 405.414062 194.96875 C 420.5625 211.355469 435.710938 229.644531 450.621094 249.492188 C 435.589844 248.785156 420.382812 248.417969 405.054688 248.417969 C 389.875 248.417969 374.789062 248.777344 359.847656 249.472656 C 374.757812 229.808594 390.054688 211.542969 405.414062 194.96875 Z M 269.472656 326.695312 C 261.882812 339.847656 254.652344 353.105469 247.792969 366.386719 C 238.242188 343.742188 230.070312 321.472656 223.394531 299.972656 C 245.304688 295.074219 268.667969 291.0625 293.015625 288.027344 C 284.949219 300.601562 277.082031 313.503906 269.472656 326.695312 Z M 293.714844 522.621094 C 268.5625 519.832031 244.847656 516.023438 222.941406 511.257812 C 229.726562 489.371094 238.074219 466.644531 247.832031 443.5 C 254.707031 456.78125 261.964844 470.03125 269.601562 483.226562 L 269.605469 483.226562 C 277.382812 496.65625 285.445312 509.789062 293.714844 522.621094 Z M 406.3125 615.652344 C 390.777344 598.890625 375.265625 580.332031 360.117188 560.394531 C 374.816406 560.964844 389.816406 561.265625 405.054688 561.265625 C 420.710938 561.265625 436.191406 560.90625 451.398438 560.246094 C 436.460938 580.542969 421.34375 599.132812 406.3125 615.652344 Z M 562.898438 442.332031 C 573.15625 465.714844 581.828125 488.320312 588.695312 509.847656 C 566.4375 514.914062 542.378906 518.992188 517.0625 522.050781 C 525.042969 509.429688 532.902344 496.386719 540.640625 482.984375 C 548.46875 469.433594 555.878906 455.851562 562.898438 442.332031 Z M 512.203125 466.613281 C 500.203125 487.421875 487.875 507.269531 475.367188 526.007812 C 452.597656 527.625 429.050781 528.464844 405.054688 528.464844 C 381.148438 528.464844 357.898438 527.746094 335.519531 526.277344 C 322.503906 507.300781 309.917969 487.390625 297.992188 466.796875 L 297.996094 466.796875 C 286.097656 446.257812 275.148438 425.542969 265.230469 404.945312 C 275.144531 384.316406 286.066406 363.570312 297.894531 343.074219 C 309.75 322.523438 322.230469 302.703125 335.132812 283.828125 C 357.957031 282.101562 381.386719 281.203125 405.054688 281.203125 C 428.84375 281.203125 452.269531 282.113281 475.097656 283.851562 C 487.816406 302.585938 500.203125 322.339844 512.113281 342.898438 C 524.140625 363.691406 535.210938 384.289062 545.199219 404.496094 C 535.242188 425.03125 524.203125 445.839844 512.203125 466.617188 Z M 579.875 100.457031 C 605.613281 115.28125 615.601562 175.050781 599.433594 253.4375 C 598.414062 258.4375 597.246094 263.53125 595.984375 268.695312 C 564.128906 261.347656 529.542969 255.882812 493.335938 252.484375 C 472.21875 222.453125 450.351562 195.148438 428.390625 171.511719 C 434.300781 165.839844 440.210938 160.429688 446.058594 155.320312 C 502.753906 106.011719 555.757812 86.542969 579.875 100.457031 Z M 405.054688 335.613281 C 442.910156 335.613281 473.628906 366.289062 473.628906 404.15625 C 473.628906 441.992188 442.910156 472.691406 405.054688 472.691406 C 367.199219 472.691406 336.480469 441.992188 336.480469 404.15625 C 336.480469 366.289062 367.199219 335.613281 405.054688 335.613281 Z M 405.054688 335.613281 " fill-opacity="1" fill-rule="nonzero"/></g></svg>