<svg xmlns="http://www.w3.org/2000/svg" xmlns:xlink="http://www.w3.org/1999/xlink" width="2500" zoomAndPan="magnify" viewBox="0 0 224.88 225" height="2500" preserveAspectRatio="xMidYMid meet" version="1.0">
<defs><clipPath id="8c9985869f"><path d="M 0 0.0585938 L 224.761719 0.0585938 L 224.761719 224.9375 L 0 224.9375 Z M 0 0.0585938 " clip-rule="nonzero"/></clipPath></defs><g clip-path="url(#8c9985869f)">
<!-- <path fill="#ffffff" d="M 0 0.0585938 L 224.878906 0.0585938 L 224.878906 224.941406 L 0 224.941406 Z M 0 0.0585938 " fill-opacity="1" fill-rule="nonzero"/> -->
<!-- <path fill="#313f52" d="M 0 0.0585938 L 224.878906 0.0585938 L 224.878906 224.941406 L 0 224.941406 Z M 0 0.0585938 " fill-opacity="1" fill-rule="nonzero"/> -->
</g><path fill="#313f52" d="M 146.914062 74.476562 C 145.726562 77.328125 144.222656 79.996094 142.398438 82.488281 C 141.410156 81.496094 140.375 80.554688 139.292969 79.664062 C 138.210938 78.773438 137.085938 77.9375 135.921875 77.160156 C 134.757812 76.382812 133.558594 75.660156 132.320312 75.003906 C 131.085938 74.34375 129.820312 73.746094 128.523438 73.210938 C 127.226562 72.675781 125.910156 72.207031 124.566406 71.804688 C 123.226562 71.402344 121.867188 71.066406 120.492188 70.796875 C 119.117188 70.527344 117.730469 70.328125 116.335938 70.195312 C 114.941406 70.066406 113.542969 70.003906 112.140625 70.007812 C 110.742188 70.015625 109.34375 70.09375 107.949219 70.238281 C 106.554688 70.386719 105.171875 70.597656 103.800781 70.882812 C 102.429688 71.164062 101.074219 71.515625 99.734375 71.933594 C 98.398438 72.351562 97.082031 72.832031 95.792969 73.378906 C 94.503906 73.929688 93.246094 74.539062 92.015625 75.210938 C 90.785156 75.882812 89.59375 76.613281 88.4375 77.40625 C 87.28125 78.195312 86.164062 79.042969 85.089844 79.945312 C 84.019531 80.84375 82.992188 81.796875 82.015625 82.800781 C 81.035156 83.804688 80.109375 84.851562 79.234375 85.945312 C 78.359375 87.042969 77.542969 88.175781 76.78125 89.355469 C 76.019531 90.53125 75.316406 91.742188 74.675781 92.984375 C 74.035156 94.230469 73.457031 95.507812 72.941406 96.808594 C 72.425781 98.113281 71.976562 99.4375 71.589844 100.785156 C 71.207031 102.132812 70.890625 103.496094 70.640625 104.875 C 70.394531 106.253906 70.210938 107.640625 70.101562 109.039062 C 69.992188 110.433594 69.949219 111.835938 69.976562 113.234375 C 70.003906 114.636719 70.101562 116.03125 70.265625 117.425781 C 70.433594 118.816406 70.667969 120.195312 70.96875 121.5625 C 71.273438 122.929688 71.640625 124.28125 72.078125 125.613281 C 72.515625 126.945312 73.015625 128.25 73.582031 129.53125 C 74.148438 130.8125 74.777344 132.066406 75.46875 133.285156 C 76.160156 134.503906 76.90625 135.6875 77.714844 136.832031 C 78.523438 137.976562 79.382812 139.078125 80.300781 140.136719 C 81.21875 141.199219 82.183594 142.210938 83.203125 143.171875 L 84.769531 144.554688 C 86.257812 145.808594 87.824219 146.957031 89.46875 147.992188 C 91.113281 149.03125 92.820312 149.949219 94.59375 150.753906 C 96.367188 151.554688 98.183594 152.234375 100.050781 152.785156 C 101.914062 153.335938 103.808594 153.757812 105.730469 154.050781 C 107.65625 154.339844 109.589844 154.496094 111.535156 154.523438 C 113.480469 154.546875 115.417969 154.4375 117.347656 154.195312 C 119.277344 153.953125 121.179688 153.582031 123.058594 153.078125 C 124.9375 152.574219 126.773438 151.941406 128.5625 151.183594 C 130.355469 150.429688 132.085938 149.550781 133.757812 148.554688 C 135.429688 147.5625 137.023438 146.457031 138.542969 145.242188 C 140.0625 144.027344 141.492188 142.710938 142.828125 141.300781 C 144.167969 139.890625 145.402344 138.390625 146.535156 136.808594 C 147.664062 135.226562 148.683594 133.578125 149.585938 131.855469 C 150.492188 130.132812 151.273438 128.355469 151.933594 126.527344 C 152.59375 124.695312 153.125 122.832031 153.527344 120.925781 C 153.929688 119.023438 154.203125 117.101562 154.339844 115.164062 C 155.496094 104.371094 152.328125 90.714844 146.917969 74.480469 Z M 89.230469 143.417969 C 88.929688 143.792969 88.566406 144.09375 88.144531 144.324219 C 87.722656 144.554688 87.273438 144.691406 86.792969 144.742188 C 86.316406 144.792969 85.847656 144.75 85.386719 144.613281 C 84.925781 144.476562 84.507812 144.257812 84.132812 143.957031 C 83.757812 143.652344 83.457031 143.289062 83.230469 142.867188 C 83 142.445312 82.859375 141.996094 82.808594 141.515625 C 82.761719 141.039062 82.804688 140.570312 82.941406 140.109375 C 83.078125 139.648438 83.296875 139.230469 83.597656 138.855469 C 83.902344 138.484375 84.265625 138.183594 84.6875 137.953125 C 85.109375 137.722656 85.558594 137.582031 86.039062 137.535156 C 86.515625 137.484375 86.988281 137.527344 87.445312 137.664062 C 87.90625 137.800781 88.324219 138.023438 88.699219 138.324219 C 89.070312 138.628906 89.371094 138.988281 89.601562 139.410156 C 89.828125 139.832031 89.96875 140.285156 90.019531 140.761719 C 90.070312 141.238281 90.027344 141.707031 89.890625 142.167969 C 89.753906 142.628906 89.535156 143.046875 89.230469 143.417969 Z M 146.742188 130.726562 C 136.277344 144.660156 113.941406 139.957031 99.621094 140.636719 C 99.621094 140.636719 97.082031 140.785156 94.527344 141.203125 C 94.527344 141.203125 95.492188 140.792969 96.722656 140.328125 C 106.78125 136.828125 111.535156 136.152344 117.644531 133.007812 C 129.148438 127.160156 140.523438 114.355469 142.890625 101.042969 C 138.511719 113.851562 125.226562 124.863281 113.128906 129.335938 C 104.839844 132.390625 89.863281 135.367188 89.863281 135.367188 L 89.261719 135.042969 C 79.070312 130.089844 78.757812 108.019531 97.285156 100.902344 C 105.402344 97.777344 113.164062 99.496094 121.925781 97.402344 C 131.285156 95.179688 142.109375 88.171875 146.515625 79.023438 C 151.441406 93.65625 157.378906 116.5625 146.734375 130.734375 Z M 146.742188 130.726562 " fill-opacity="1" fill-rule="nonzero"/></svg>